<svg width="298" height="502" viewBox="0 0 298 502" fill="none" xmlns="http://www.w3.org/2000/svg">
<path d="M220.125 391.908C219.841 392.229 219.558 392.558 219.284 392.888C215.454 397.337 211.994 402.093 208.938 407.108C208.692 407.492 208.454 407.886 208.235 408.27C201.001 420.385 196.077 433.74 193.713 447.655C193.183 450.803 192.784 453.969 192.515 457.154C192.324 459.606 192.208 462.061 192.168 464.52C192.022 474.842 192.936 486.326 186.292 494.214C184.516 496.29 182.348 497.994 179.913 499.229C178.078 500.179 176.14 500.913 174.137 501.416H153.418C152.377 501.26 151.335 501.096 150.293 500.931C150.266 500.931 150.238 500.922 150.211 500.922L150 500.995L148.748 501.416L148.694 501.434V501.416C148.695 501.379 148.692 501.342 148.684 501.306C148.686 501.239 148.683 501.172 148.675 501.105V501.096C148.666 500.913 148.657 500.739 148.657 500.556L148.63 500.071C148.63 500.071 148.62 500.062 148.63 500.062C148.62 499.787 148.602 499.512 148.593 499.229C147.633 475.345 149.973 450.666 161.232 429.637C165.093 422.432 170.065 415.882 175.965 410.228C175.999 410.192 176.036 410.159 176.074 410.128C187.781 398.945 202.916 391.634 218.891 391.881C219.302 391.881 219.713 391.89 220.125 391.908Z" fill="#F0F0F0"/>
<path d="M220.171 392.425C202.078 401.722 187.37 416.491 178.138 434.633C176.081 438.504 174.646 442.675 173.886 446.992C173.282 451.222 173.82 455.537 175.444 459.488C176.885 463.203 178.788 466.836 179.302 470.837C179.534 472.888 179.331 474.966 178.706 476.934C178.08 478.902 177.046 480.715 175.671 482.254C172.346 486.179 167.811 488.674 163.291 490.959C158.272 493.496 153.019 496.052 149.535 500.639C149.113 501.195 148.276 500.507 148.698 499.952C154.76 491.971 165.437 490.23 172.708 483.741C176.1 480.713 178.602 476.643 178.32 471.955C178.073 467.855 176.114 464.107 174.623 460.359C172.982 456.527 172.303 452.352 172.645 448.197C173.182 443.855 174.454 439.635 176.406 435.72C180.659 426.835 186.281 418.675 193.065 411.539C200.763 403.352 209.803 396.543 219.794 391.408C220.413 391.091 220.785 392.11 220.171 392.425Z" fill="white"/>
<path d="M180.767 428.615C177.938 426.651 175.897 423.744 175.011 420.412C174.124 417.081 174.449 413.542 175.928 410.429C176.229 409.8 177.22 410.239 176.918 410.869C175.536 413.766 175.233 417.062 176.065 420.162C176.897 423.263 178.808 425.964 181.454 427.777C182.029 428.172 181.339 429.008 180.767 428.615Z" fill="white"/>
<path d="M174.467 457.701C181.404 456.507 187.636 452.739 191.922 447.148C192.346 446.594 193.182 447.282 192.759 447.835C188.288 453.645 181.795 457.554 174.573 458.78C173.885 458.897 173.782 457.817 174.467 457.701Z" fill="white"/>
<path d="M201.331 404.671C202.268 405.659 203.435 406.399 204.728 406.824C206.021 407.249 207.399 407.346 208.739 407.106C209.425 406.981 209.527 408.061 208.845 408.185C207.364 408.444 205.842 408.335 204.412 407.868C202.983 407.402 201.689 406.592 200.644 405.509C200.537 405.415 200.47 405.284 200.456 405.142C200.442 405.001 200.482 404.859 200.569 404.746C200.66 404.636 200.792 404.566 200.934 404.551C201.077 404.537 201.22 404.58 201.331 404.671Z" fill="white"/>
<path d="M270.581 458.122C270.161 458.214 269.74 458.305 269.311 458.406H269.302C263.574 459.652 257.957 461.36 252.504 463.512C252.084 463.677 251.663 463.842 251.243 464.015H251.234C238.235 469.314 226.325 476.971 216.103 486.6C216.067 486.636 216.03 486.664 215.994 486.7C215.971 486.727 215.947 486.751 215.92 486.773L215.875 486.819C211.819 490.666 208.058 494.814 204.625 499.228C204.625 499.237 204.615 499.246 204.606 499.255C204.058 499.969 203.5 500.683 202.952 501.415H148.748L148.693 501.433V501.415H148.465C148.465 501.405 148.474 501.396 148.483 501.387C148.483 501.378 148.492 501.378 148.492 501.369C148.556 501.277 148.62 501.186 148.675 501.104V501.094C148.689 501.067 148.707 501.042 148.73 501.021C148.785 500.93 148.849 500.856 148.894 500.774C149.26 500.262 149.616 499.74 149.982 499.228C150.576 498.377 151.179 497.526 151.791 496.684L151.792 496.68L151.794 496.677L151.797 496.675L151.801 496.675V496.665C151.81 496.656 151.81 496.647 151.819 496.638L151.837 496.62C159.377 486.169 167.858 476.25 177.573 467.941C177.865 467.685 178.158 467.429 178.468 467.191C182.867 463.464 187.566 460.107 192.515 457.152C195.22 455.551 198.008 454.081 200.877 452.742C208.279 449.326 216.171 447.097 224.264 446.135H224.283C224.301 446.135 224.319 446.126 224.347 446.126C224.374 446.126 224.392 446.117 224.41 446.117C240.504 444.25 257 447.535 269.621 457.363C269.951 457.619 270.261 457.866 270.581 458.122Z" fill="#F0F0F0"/>
<path d="M148.464 501.416H148.692V501.435L148.747 501.416H163.251C158.928 500.675 154.614 500.099 150.291 500.931C150.191 500.95 150.1 500.968 149.999 500.995C149.56 501.078 149.122 501.188 148.683 501.306C148.656 501.316 148.619 501.325 148.592 501.334C148.552 501.345 148.514 501.363 148.482 501.389C148.459 501.392 148.437 501.402 148.418 501.416H148.464Z" fill="white"/>
<path d="M270.317 458.572C269.979 458.517 269.65 458.453 269.312 458.407H269.303C262.251 457.256 255.094 456.894 247.963 457.327C247.607 457.346 247.241 457.373 246.875 457.391C236.977 458.082 227.245 460.302 218.023 463.971C218.014 463.971 218.014 463.971 218.014 463.98C217.914 464.017 217.813 464.053 217.722 464.09C215.574 464.959 213.454 465.911 211.379 466.936C207.409 468.786 203.755 471.251 200.55 474.238C197.983 476.774 196.041 479.872 194.874 483.288C194.755 483.636 194.637 483.974 194.527 484.322C194.445 484.597 194.362 484.88 194.28 485.155C193.202 488.989 192.535 493.034 190.542 496.538C189.987 497.516 189.312 498.42 188.532 499.229C187.725 500.069 186.817 500.804 185.827 501.416H183.523C184.784 500.87 185.952 500.133 186.987 499.229C187.792 498.534 188.496 497.73 189.08 496.84C191.346 493.418 192.041 489.245 193.101 485.356C193.275 484.725 193.458 484.112 193.659 483.499C194.714 480.143 196.482 477.056 198.841 474.449C201.88 471.306 205.431 468.704 209.341 466.753C211.809 465.453 214.343 464.276 216.945 463.22C217.283 463.074 217.621 462.946 217.96 462.818C234.386 456.417 252.224 454.534 269.623 457.364C269.961 457.41 270.29 457.474 270.628 457.529C271.313 457.648 271.003 458.691 270.317 458.572Z" fill="white"/>
<path d="M217.095 463.711C216.017 460.436 216.136 456.885 217.432 453.691C218.727 450.496 221.114 447.867 224.167 446.272C224.786 445.952 225.313 446.9 224.693 447.22C221.847 448.7 219.624 451.15 218.424 454.127C217.224 457.104 217.126 460.412 218.148 463.455C218.369 464.117 217.315 464.369 217.095 463.711Z" fill="white"/>
<path d="M194.576 483.137C200.833 486.365 208.075 487.114 214.859 485.233C215.531 485.046 215.785 486.1 215.114 486.287C208.051 488.231 200.516 487.436 194.012 484.062C193.393 483.74 193.96 482.817 194.576 483.137Z" fill="white"/>
<path d="M247.912 456.99C248.065 458.344 248.552 459.639 249.329 460.757C250.106 461.876 251.148 462.785 252.362 463.401C252.985 463.714 252.418 464.638 251.798 464.326C250.46 463.639 249.31 462.635 248.45 461.401C247.589 460.166 247.043 458.74 246.859 457.245C246.83 457.106 246.855 456.961 246.93 456.839C247.004 456.718 247.121 456.629 247.258 456.591C247.398 456.558 247.545 456.581 247.667 456.656C247.789 456.731 247.877 456.851 247.912 456.99Z" fill="white"/>
<path d="M297.889 10.0659C297.887 7.39671 296.828 4.83735 294.943 2.94999C293.058 1.06262 290.502 0.00159278 287.836 0H18.2334C15.5767 0.00522657 13.0296 1.06114 11.1468 2.93784C9.26391 4.81454 8.19776 7.36003 8.18044 10.0201C-0.922075 96.925 -2.43002 182.293 3.66574 264.457C4.406 274.624 5.27116 284.739 6.26123 294.801C6.7913 300.191 7.35488 305.566 7.95196 310.925C8.02508 311.62 8.09819 312.316 8.18044 313.011C8.19966 315.67 9.2667 318.213 11.1494 320.088C13.0321 321.963 15.5781 323.018 18.2334 323.022H287.836C290.502 323.021 293.058 321.96 294.943 320.072C296.828 318.185 297.887 315.626 297.889 312.957V312.856C286.986 216.068 286.986 114.229 297.889 10.1574V10.0659Z" fill="white"/>
<path d="M297.889 10.0659C297.887 7.39671 296.828 4.83735 294.943 2.94999C293.058 1.06262 290.502 0.00159278 287.836 0H18.2334C15.5767 0.00522657 13.0296 1.06114 11.1468 2.93784C9.26391 4.81454 8.19776 7.36003 8.18044 10.0201C-0.922075 96.925 -2.43002 182.293 3.66574 264.457C4.406 274.624 5.27116 284.739 6.26123 294.801C6.7913 300.191 7.35488 305.566 7.95196 310.925C8.02508 311.62 8.09819 312.316 8.18044 313.011C8.19966 315.67 9.2667 318.213 11.1494 320.088C13.0321 321.963 15.5781 323.018 18.2334 323.022H287.836C290.502 323.021 293.058 321.96 294.943 320.072C296.828 318.185 297.887 315.626 297.889 312.957V312.856C286.986 216.068 286.986 114.229 297.889 10.1574V10.0659ZM296.061 313.011C296.045 315.186 295.171 317.265 293.631 318.797C292.09 320.33 290.007 321.19 287.836 321.192H18.2334C16.053 321.189 13.9628 320.32 12.421 318.776C10.8791 317.233 10.0115 315.14 10.0083 312.957V312.856C9.94428 312.27 9.88029 311.675 9.81631 311.09C9.18572 305.489 8.59778 299.874 8.05248 294.243C7.09288 284.369 6.24296 274.441 5.5027 264.457C-0.593061 182.338 0.90574 97.0257 10.0083 10.1574V10.0659C10.0115 7.88262 10.8791 5.78974 12.421 4.24596C13.9628 2.70218 16.053 1.83344 18.2334 1.83015H287.836C290.009 1.83086 292.094 2.6925 293.635 4.22696C295.176 5.76141 296.048 7.84402 296.061 10.0201C285.158 114.174 285.158 216.123 296.061 313.011Z" fill="#E4E4E4"/>
<path d="M36.8158 93.6035C36.1222 93.6053 35.4577 93.8825 34.9679 94.3742C34.4782 94.8659 34.2031 95.532 34.2031 96.2264C34.2031 96.9209 34.4782 97.587 34.9679 98.0787C35.4577 98.5704 36.1222 98.8475 36.8158 98.8493H255.908C256.601 98.8475 257.266 98.5704 257.756 98.0787C258.245 97.587 258.52 96.9209 258.52 96.2264C258.52 95.532 258.245 94.8659 257.756 94.3742C257.266 93.8825 256.601 93.6053 255.908 93.6035H36.8158Z" fill="#E6E6E6"/>
<path d="M36.8178 109.342C36.1239 109.343 35.4589 109.62 34.9687 110.112C34.4784 110.604 34.2031 111.27 34.2031 111.965C34.2031 112.66 34.4784 113.326 34.9687 113.818C35.4589 114.309 36.1239 114.586 36.8178 114.588H185.551C186.245 114.586 186.91 114.309 187.401 113.818C187.891 113.326 188.166 112.66 188.166 111.965C188.166 111.27 187.891 110.604 187.401 110.112C186.91 109.62 186.245 109.343 185.551 109.342H36.8178Z" fill="#E6E6E6"/>
<path d="M36.8178 124.725C36.1239 124.726 35.4589 125.003 34.9687 125.495C34.4784 125.986 34.2031 126.653 34.2031 127.348C34.2031 128.042 34.4784 128.709 34.9687 129.2C35.4589 129.692 36.1239 129.969 36.8178 129.97H255.91C256.604 129.969 257.269 129.692 257.759 129.2C258.249 128.709 258.525 128.042 258.525 127.348C258.525 126.653 258.249 125.986 257.759 125.495C257.269 125.003 256.604 124.726 255.91 124.725H36.8178Z" fill="#E6E6E6"/>
<path d="M36.8158 140.463C36.1222 140.465 35.4577 140.742 34.9679 141.234C34.4782 141.725 34.2031 142.391 34.2031 143.086C34.2031 143.78 34.4782 144.446 34.9679 144.938C35.4577 145.43 36.1222 145.707 36.8158 145.709H185.549C186.243 145.707 186.907 145.43 187.397 144.938C187.887 144.446 188.162 143.78 188.162 143.086C188.162 142.391 187.887 141.725 187.397 141.234C186.907 140.742 186.243 140.465 185.549 140.463H36.8158Z" fill="#E6E6E6"/>
<path d="M36.8158 182.365C36.1222 182.367 35.4577 182.644 34.9679 183.136C34.4782 183.628 34.2031 184.294 34.2031 184.988C34.2031 185.683 34.4782 186.349 34.9679 186.84C35.4577 187.332 36.1222 187.609 36.8158 187.611H255.908C256.601 187.609 257.266 187.332 257.756 186.84C258.245 186.349 258.52 185.683 258.52 184.988C258.52 184.294 258.245 183.628 257.756 183.136C257.266 182.644 256.601 182.367 255.908 182.365H36.8158Z" fill="#E6E6E6"/>
<path d="M36.8178 198.104C36.1239 198.105 35.4589 198.382 34.9687 198.873C34.4784 199.365 34.2031 200.032 34.2031 200.726C34.2031 201.421 34.4784 202.088 34.9687 202.579C35.4589 203.071 36.1239 203.348 36.8178 203.349H185.551C186.245 203.348 186.91 203.071 187.401 202.579C187.891 202.088 188.166 201.421 188.166 200.726C188.166 200.032 187.891 199.365 187.401 198.873C186.91 198.382 186.245 198.105 185.551 198.104H36.8178Z" fill="#E6E6E6"/>
<path d="M36.8178 213.486C36.1239 213.488 35.4589 213.765 34.9687 214.256C34.4784 214.748 34.2031 215.414 34.2031 216.109C34.2031 216.804 34.4784 217.47 34.9687 217.962C35.4589 218.454 36.1239 218.731 36.8178 218.732H255.91C256.604 218.731 257.269 218.454 257.759 217.962C258.249 217.47 258.525 216.804 258.525 216.109C258.525 215.414 258.249 214.748 257.759 214.256C257.269 213.765 256.604 213.488 255.91 213.486H36.8178Z" fill="#E6E6E6"/>
<path d="M36.8158 229.225C36.1222 229.226 35.4577 229.504 34.9679 229.995C34.4782 230.487 34.2031 231.153 34.2031 231.848C34.2031 232.542 34.4782 233.208 34.9679 233.7C35.4577 234.191 36.1222 234.469 36.8158 234.47H185.549C186.243 234.469 186.907 234.191 187.397 233.7C187.887 233.208 188.162 232.542 188.162 231.848C188.162 231.153 187.887 230.487 187.397 229.995C186.907 229.504 186.243 229.226 185.549 229.225H36.8158Z" fill="#E6E6E6"/>
<path d="M80.1657 61.0335H38.3197C37.7777 61.0329 37.2581 60.8171 36.8749 60.4333C36.4916 60.0496 36.276 59.5293 36.2754 58.9866V52.2735C36.276 51.7308 36.4916 51.2105 36.8749 50.8267C37.2581 50.443 37.7777 50.2272 38.3197 50.2266H80.1657C80.7077 50.2272 81.2273 50.443 81.6105 50.8267C81.9938 51.2105 82.2093 51.7308 82.2099 52.2735V58.9866C82.2093 59.5293 81.9938 60.0496 81.6105 60.4333C81.2273 60.8171 80.7077 61.0329 80.1657 61.0335Z" fill="#FD7D68"/>
<path d="M225.54 276.97L212.722 281.212C210.586 281.919 208.45 282.625 206.314 283.332C204.335 283.985 202.194 284.76 200.076 284.48C198.612 284.286 196.944 283.442 196.487 281.934C196.056 280.508 196.971 279.015 198.079 278.171C201.138 275.841 205.005 278.212 207.172 280.625C209.823 283.577 211.324 287.386 213.81 290.476C216.023 293.246 218.829 295.483 222.021 297.023C228.365 300.022 236.102 299.704 241.76 295.333C248.517 290.115 249.206 281.07 249.242 273.179C249.23 272.824 249.08 272.486 248.824 272.239C248.568 271.992 248.227 271.854 247.871 271.854C247.515 271.854 247.174 271.992 246.918 272.239C246.662 272.486 246.512 272.824 246.5 273.179C246.468 280.331 246.061 289.098 239.549 293.573C233.311 297.859 225.112 296.722 219.368 292.155C216.168 289.61 214.199 286.291 212.098 282.854C210.046 279.5 207.5 276.247 203.639 274.943C201.984 274.34 200.171 274.329 198.509 274.91C196.846 275.492 195.434 276.63 194.513 278.133C194.092 278.843 193.827 279.633 193.735 280.453C193.644 281.273 193.727 282.103 193.981 282.888C194.235 283.673 194.653 284.395 195.207 285.006C195.761 285.616 196.439 286.102 197.195 286.429C201.671 288.565 206.791 286.063 211.101 284.636L226.269 279.617C227.936 279.066 227.222 276.414 225.54 276.97Z" fill="#FD7D68"/>
<path d="M187.557 478.744L178.568 481.709L162.869 448.409L176.135 444.033L187.557 478.744Z" fill="#9F616A"/>
<path d="M193.969 486.307L193.357 484.449L191.749 479.553L190.652 476.223L187.654 477.211L187.033 477.165L178.798 476.607L177.702 476.534L176.075 476.424L174.393 476.305L169.696 483.141H169.687C167.931 483.713 166.306 484.629 164.907 485.836C163.507 487.042 162.361 488.515 161.535 490.168C161.434 490.37 161.343 490.571 161.251 490.772C161.025 491.265 160.832 491.772 160.676 492.291C159.964 494.534 159.832 496.92 160.292 499.228C160.41 499.8 160.559 500.365 160.74 500.921L160.767 501.012L160.877 501.351L161.535 501.131L167.311 499.228L187.545 492.557L191.557 491.23L192.79 490.818H192.799L195.194 490.031L193.969 486.307Z" fill="#2F2E41"/>
<path d="M102.363 486.575L92.9003 486.574L88.3984 450.027L102.365 450.028L102.363 486.575Z" fill="#9F616A"/>
<path d="M87.2176 326.363L83.0227 333.629C83.0227 333.629 78.4133 334.889 79.9197 349.934C80.9834 360.558 81.3285 408.124 84.0066 439.025C85.1213 451.886 86.64 461.86 88.783 465.084L90.1022 466.267L103.872 467.584L104.219 467.463L109.276 431.705C110.183 425.286 110.047 418.762 108.873 412.387L107.959 402.321L120.638 351.354C120.638 351.354 133.549 384.02 141.774 415.132C143.754 422.622 151.275 427.385 154.126 433.812C155.081 435.965 156.02 438.051 156.936 440.053C162.967 453.236 165.99 462.834 168.277 463.631H170.105L181.072 459.971L183.229 454.54L166.449 405.066L153.884 325.185C129.942 312.295 107.483 310.861 87.2176 326.363Z" fill="#2F2E41"/>
<path d="M155.802 218.729C154.976 216.906 154.004 215.153 152.896 213.486C150.364 209.535 146.845 206.314 142.688 204.143L139.087 203.347L132.635 201.919L129.235 198.103L123.66 191.854H104.468L101.9 198.103L99.7433 203.347L98.8203 205.58L82.3882 213.806C82.3791 213.806 82.3791 213.806 82.3699 213.815C82.5893 215.463 82.8056 217.101 83.0188 218.729C83.4849 222.271 83.9236 225.769 84.3349 229.225C84.5451 230.982 84.7461 232.73 84.938 234.469C85.5503 239.923 86.0773 245.282 86.5191 250.547C86.912 255.25 87.2258 259.886 87.4604 264.456C88.0319 274.833 88.0746 285.233 87.5884 295.614C87.4604 298.057 89.8823 300.839 89.6903 303.228C89.3705 307.126 86.3637 310.585 85.8336 314.309C85.5046 316.597 85.6509 319.031 85.0751 321.191C84.9151 321.822 84.6755 322.431 84.3622 323.002C84.3622 323.012 84.3531 323.012 84.3531 323.021C77.773 334.789 82.9366 329.17 82.3243 331.815L82.6167 331.888C82.7538 331.924 83.1742 332.034 83.8505 332.19C87.7163 333.114 103.655 318.134 114.357 318.134C120.781 318.134 137.789 328.713 143.483 329.481C147.988 330.085 152.01 330.634 154.404 328.52C155.099 327.904 155.63 327.124 155.949 326.251L155.976 326.169L155.967 326.086L155.738 323.021L155.601 321.191L153.646 294.928C152.553 293.572 151.863 291.936 151.653 290.207C151.443 288.478 151.722 286.724 152.457 285.146L152.86 284.295L151.379 264.456L151.105 260.75L151.004 259.496V259.487L150.292 249.906L152.01 244.672V244.663L155.355 234.469L157.073 229.225L158.151 225.931L158.224 225.711C157.649 223.31 156.838 220.971 155.802 218.729Z" fill="#FD7D68"/>
<path d="M172.477 313.357L154.053 265.679L145.496 248.27L161.951 239.168L175.203 262.548L184.087 311.395C185.485 312.351 186.566 313.704 187.191 315.28C187.816 316.855 187.956 318.582 187.593 320.238C187.23 321.894 186.381 323.404 185.155 324.573C183.929 325.742 182.382 326.517 180.712 326.799C179.043 327.081 177.327 326.857 175.786 326.155C174.245 325.454 172.948 324.307 172.063 322.861C171.177 321.416 170.744 319.739 170.818 318.045C170.892 316.352 171.47 314.719 172.477 313.357Z" fill="#9F616A"/>
<path d="M172.85 247.673L168.134 244.617L162.715 234.468L159.918 229.225L158.154 225.931L157.405 224.521L148.933 218.729L143.212 214.812L138.551 218.729L136.33 220.596L138.505 229.225L139.821 234.468L142.691 245.843L151.108 260.749L153.201 264.455L154.398 266.588L154.407 266.606L154.572 266.89L175.838 266.002L176.505 265.974L176.542 264.455L176.56 263.906C176.569 263.632 176.569 263.357 176.569 263.083C176.567 257.724 175.292 252.442 172.85 247.673Z" fill="#FD7D68"/>
<path d="M11.8851 294.396L49.5755 259.911L62.6746 245.611L77.1145 257.664L60.1621 278.51L17.9214 304.517C17.539 306.169 16.6722 307.668 15.4323 308.823C14.1924 309.977 12.6361 310.734 10.9633 310.996C9.29055 311.259 7.57769 311.014 6.04481 310.294C4.51192 309.574 3.22903 308.412 2.36096 306.956C1.49288 305.5 1.07926 303.818 1.17325 302.126C1.26724 300.433 1.86452 298.807 2.88839 297.457C3.91225 296.107 5.31594 295.094 6.91908 294.548C8.52223 294.003 10.2516 293.95 11.8851 294.396Z" fill="#9F616A"/>
<path d="M89.6918 234.468L89.6187 229.225L89.4816 218.729L89.4267 214.657L89.2713 214.547C88.4202 213.988 87.4556 213.625 86.4474 213.485C85.5609 213.338 84.6562 213.338 83.7696 213.485C83.3024 213.558 82.8411 213.665 82.3896 213.806C82.3805 213.806 82.3805 213.806 82.3713 213.815C79.6623 214.789 77.2702 216.485 75.4531 218.72L75.4439 218.729C72.7033 221.993 70.2739 225.507 68.1875 229.225C67.1548 230.982 66.1678 232.757 65.2447 234.468C61.7536 240.974 59.2404 246.611 59.1947 246.712L48.7578 260.282L48.9041 260.529L51.198 264.455L59.6059 278.849L60.9402 281.137L64.3491 279.316C68.3228 277.193 71.4559 273.779 73.2323 269.634L74.4478 264.986L74.8956 264.455L86.5205 250.546L89.8471 246.556L89.6918 234.468Z" fill="#FD7D68"/>
<path d="M129.523 173.945C131.08 164.341 124.566 155.293 114.975 153.734C105.384 152.176 96.3472 158.698 94.7908 168.301C93.2344 177.904 99.7478 186.953 109.339 188.511C118.93 190.07 127.967 183.548 129.523 173.945Z" fill="#9F616A"/>
<path d="M95.15 159.576C94.368 156.836 92.8042 154.487 93.5862 154.487C94.3681 154.487 94.7591 152.53 94.7591 152.53C94.7591 152.53 95.541 152.138 95.9319 152.53C96.3229 152.921 96.7138 149.79 96.7138 149.79C96.7138 149.79 97.1048 148.615 97.4958 149.398C97.8867 150.181 97.8867 149.79 98.2777 148.615C98.6686 147.441 100.624 146.658 100.624 146.658C100.624 146.658 108.052 147.049 109.225 145.483C110.398 143.918 123.69 145.092 126.427 147.049C129.164 149.007 139.946 152.506 133.549 163.487C137.205 169.892 131.747 181.317 130.337 182.673C128.107 184.816 126.563 185.589 116.012 187.691C113.947 188.103 108.873 170.807 108.873 170.807C108.873 170.807 95.932 162.316 95.15 159.576Z" fill="#2F2E41"/>
<path d="M102.933 485.145L102.366 484.917L92.1852 480.762L90.6225 480.131L84.024 485.145H84.0149C80.2868 485.15 76.7128 486.635 74.0775 489.276C71.4422 491.916 69.9609 495.496 69.959 499.229V499.686H106.086V485.145H102.933Z" fill="#2F2E41"/>
<path d="M209.121 500.317C209.122 500.461 209.094 500.603 209.04 500.736C208.986 500.869 208.906 500.99 208.805 501.092C208.704 501.194 208.584 501.275 208.452 501.331C208.319 501.386 208.177 501.415 208.034 501.416H22.2367C21.947 501.416 21.6692 501.3 21.4644 501.095C21.2596 500.89 21.1445 500.612 21.1445 500.322C21.1445 500.032 21.2596 499.754 21.4644 499.549C21.6692 499.344 21.947 499.229 22.2367 499.229H208.034C208.322 499.229 208.598 499.344 208.802 499.548C209.006 499.752 209.121 500.029 209.121 500.317Z" fill="#CCCCCC"/>
</svg>
