<svg width="32" height="32" viewBox="0 0 32 32" fill="none" xmlns="http://www.w3.org/2000/svg">
<path d="M4.53307 27.1994L1.46641 24.1994C1.19974 23.9327 1.06641 23.6216 1.06641 23.266C1.06641 22.9105 1.19974 22.5993 1.46641 22.3327C3.42196 20.2216 5.67752 18.6382 8.23307 17.5827C10.7886 16.5271 13.3775 15.9993 15.9997 15.9993C18.622 15.9993 21.2053 16.5271 23.7497 17.5827C26.2942 18.6382 28.5553 20.2216 30.5331 22.3327C30.7997 22.5993 30.9331 22.9105 30.9331 23.266C30.9331 23.6216 30.7997 23.9327 30.5331 24.1994L27.4664 27.1994C27.222 27.4438 26.9386 27.5771 26.6164 27.5993C26.2942 27.6216 25.9997 27.5327 25.7331 27.3327L21.8664 24.3993C21.6886 24.266 21.5553 24.1105 21.4664 23.9327C21.3775 23.7549 21.3331 23.5549 21.3331 23.3327V19.5327C20.4886 19.266 19.622 19.0549 18.7331 18.8993C17.8442 18.7438 16.9331 18.666 15.9997 18.666C15.0664 18.666 14.1553 18.7438 13.2664 18.8993C12.3775 19.0549 11.5109 19.266 10.6664 19.5327V23.3327C10.6664 23.5549 10.622 23.7549 10.5331 23.9327C10.4442 24.1105 10.3109 24.266 10.1331 24.3993L6.26641 27.3327C5.99974 27.5327 5.7053 27.6216 5.38307 27.5993C5.06085 27.5771 4.77752 27.4438 4.53307 27.1994ZM7.99974 20.466C7.3553 20.7994 6.73307 21.1827 6.13307 21.616C5.53307 22.0494 4.91085 22.5327 4.26641 23.066L5.59974 24.3993L7.99974 22.5327V20.466ZM23.9997 20.5327V22.5327L26.3997 24.3993L27.7331 23.1327C27.0886 22.5549 26.4664 22.0549 25.8664 21.6327C25.2664 21.2105 24.6442 20.8438 23.9997 20.5327ZM14.6664 9.33268V2.66602H17.3331V9.33268H14.6664ZM23.4664 13.1327L21.5997 11.1993L26.3331 6.46602L28.1997 8.39935L23.4664 13.1327ZM8.53307 13.1327L3.79974 8.39935L5.66641 6.46602L10.3997 11.1993L8.53307 13.1327Z" fill="white"/>
</svg>
