<svg width="40" height="40" viewBox="0 0 40 40" fill="none" xmlns="http://www.w3.org/2000/svg">
<path d="M13.334 23.334H26.6673V22.4173C26.6673 21.1951 26.0562 20.209 24.834 19.459C23.6118 18.709 22.0007 18.334 20.0007 18.334C18.0007 18.334 16.3895 18.709 15.1673 19.459C13.9451 20.209 13.334 21.1951 13.334 22.4173V23.334ZM20.0007 16.6673C20.9173 16.6673 21.702 16.3409 22.3548 15.6882C23.0076 15.0354 23.334 14.2507 23.334 13.334C23.334 12.4173 23.0076 11.6326 22.3548 10.9798C21.702 10.327 20.9173 10.0007 20.0007 10.0007C19.084 10.0007 18.2993 10.327 17.6465 10.9798C16.9937 11.6326 16.6673 12.4173 16.6673 13.334C16.6673 14.2507 16.9937 15.0354 17.6465 15.6882C18.2993 16.3409 19.084 16.6673 20.0007 16.6673ZM3.33398 36.6673V6.66732C3.33398 5.75065 3.66037 4.96593 4.31315 4.31315C4.96593 3.66037 5.75065 3.33398 6.66732 3.33398H33.334C34.2506 3.33398 35.0354 3.66037 35.6881 4.31315C36.3409 4.96593 36.6673 5.75065 36.6673 6.66732V26.6673C36.6673 27.584 36.3409 28.3687 35.6881 29.0215C35.0354 29.6743 34.2506 30.0006 33.334 30.0006H10.0007L3.33398 36.6673ZM8.58398 26.6673H33.334V6.66732H6.66732V28.5423L8.58398 26.6673Z" fill="white"/>
</svg>
