<svg width="40" height="40" viewBox="0 0 40 40" fill="none" xmlns="http://www.w3.org/2000/svg">
<path d="M3.33398 35V5H20.0007V11.6667H36.6673V35H3.33398ZM6.66732 31.6667H10.0007V28.3333H6.66732V31.6667ZM6.66732 25H10.0007V21.6667H6.66732V25ZM6.66732 18.3333H10.0007V15H6.66732V18.3333ZM6.66732 11.6667H10.0007V8.33333H6.66732V11.6667ZM13.334 31.6667H16.6673V28.3333H13.334V31.6667ZM13.334 25H16.6673V21.6667H13.334V25ZM13.334 18.3333H16.6673V15H13.334V18.3333ZM13.334 11.6667H16.6673V8.33333H13.334V11.6667ZM20.0007 31.6667H33.334V15H20.0007V18.3333H23.334V21.6667H20.0007V25H23.334V28.3333H20.0007V31.6667ZM26.6673 21.6667V18.3333H30.0006V21.6667H26.6673ZM26.6673 28.3333V25H30.0006V28.3333H26.6673Z" fill="white"/>
</svg>
