<svg width="32" height="32" viewBox="0 0 32 32" fill="none" xmlns="http://www.w3.org/2000/svg">
<path d="M6.66667 29.3335C5.93333 29.3335 5.30556 29.0724 4.78333 28.5502C4.26111 28.0279 4 27.4002 4 26.6668V10.6668C4 9.9335 4.26111 9.30572 4.78333 8.7835C5.30556 8.26127 5.93333 8.00016 6.66667 8.00016H9.33333C9.33333 6.15572 9.98333 4.5835 11.2833 3.2835C12.5833 1.9835 14.1556 1.3335 16 1.3335C17.8444 1.3335 19.4167 1.9835 20.7167 3.2835C22.0167 4.5835 22.6667 6.15572 22.6667 8.00016H25.3333C26.0667 8.00016 26.6944 8.26127 27.2167 8.7835C27.7389 9.30572 28 9.9335 28 10.6668V26.6668C28 27.4002 27.7389 28.0279 27.2167 28.5502C26.6944 29.0724 26.0667 29.3335 25.3333 29.3335H6.66667ZM6.66667 26.6668H25.3333V10.6668H6.66667V26.6668ZM16 18.6668C17.8444 18.6668 19.4167 18.0168 20.7167 16.7168C22.0167 15.4168 22.6667 13.8446 22.6667 12.0002H20C20 13.1113 19.6111 14.0557 18.8333 14.8335C18.0556 15.6113 17.1111 16.0002 16 16.0002C14.8889 16.0002 13.9444 15.6113 13.1667 14.8335C12.3889 14.0557 12 13.1113 12 12.0002H9.33333C9.33333 13.8446 9.98333 15.4168 11.2833 16.7168C12.5833 18.0168 14.1556 18.6668 16 18.6668ZM12 8.00016H20C20 6.88905 19.6111 5.94461 18.8333 5.16683C18.0556 4.38905 17.1111 4.00016 16 4.00016C14.8889 4.00016 13.9444 4.38905 13.1667 5.16683C12.3889 5.94461 12 6.88905 12 8.00016Z" fill="white"/>
</svg>
