<svg width="56" height="56" viewBox="0 0 56 56" fill="none" xmlns="http://www.w3.org/2000/svg">
<rect x="0.5" y="0.5" width="55" height="55" rx="27.5" stroke="#222222"/>
<path d="M28 41.9999L26.0666 40.2665C23.8222 38.2443 21.9666 36.4999 20.5 35.0332C19.0333 33.5665 17.8666 32.2499 17 31.0832C16.1333 29.9165 15.5277 28.8443 15.1833 27.8665C14.8388 26.8888 14.6666 25.8888 14.6666 24.8665C14.6666 22.7776 15.3666 21.0332 16.7666 19.6332C18.1666 18.2332 19.9111 17.5332 22 17.5332C23.1555 17.5332 24.2555 17.7776 25.3 18.2665C26.3444 18.7554 27.2444 19.4443 28 20.3332C28.7555 19.4443 29.6555 18.7554 30.7 18.2665C31.7444 17.7776 32.8444 17.5332 34 17.5332C36.0888 17.5332 37.8333 18.2332 39.2333 19.6332C40.6333 21.0332 41.3333 22.7776 41.3333 24.8665C41.3333 25.8888 41.1611 26.8888 40.8166 27.8665C40.4722 28.8443 39.8666 29.9165 39 31.0832C38.1333 32.2499 36.9666 33.5665 35.5 35.0332C34.0333 36.4999 32.1777 38.2443 29.9333 40.2665L28 41.9999ZM28 38.3999C30.1333 36.4888 31.8888 34.8499 33.2666 33.4832C34.6444 32.1165 35.7333 30.9276 36.5333 29.9165C37.3333 28.9054 37.8888 28.0054 38.2 27.2165C38.5111 26.4276 38.6666 25.6443 38.6666 24.8665C38.6666 23.5332 38.2222 22.4221 37.3333 21.5332C36.4444 20.6443 35.3333 20.1999 34 20.1999C32.9555 20.1999 31.9888 20.4943 31.1 21.0832C30.2111 21.6721 29.6 22.4221 29.2666 23.3332H26.7333C26.4 22.4221 25.7888 21.6721 24.9 21.0832C24.0111 20.4943 23.0444 20.1999 22 20.1999C20.6666 20.1999 19.5555 20.6443 18.6666 21.5332C17.7777 22.4221 17.3333 23.5332 17.3333 24.8665C17.3333 25.6443 17.4888 26.4276 17.8 27.2165C18.1111 28.0054 18.6666 28.9054 19.4666 29.9165C20.2666 30.9276 21.3555 32.1165 22.7333 33.4832C24.1111 34.8499 25.8666 36.4888 28 38.3999Z" fill="#222222"/>
</svg>
