<svg width="240" height="240" viewBox="0 0 240 240" fill="none" xmlns="http://www.w3.org/2000/svg">
<path d="M155 110C159.167 110 162.708 108.542 165.625 105.625C168.542 102.708 170 99.1667 170 95C170 90.8333 168.542 87.2917 165.625 84.375C162.708 81.4583 159.167 80 155 80C150.833 80 147.292 81.4583 144.375 84.375C141.458 87.2917 140 90.8333 140 95C140 99.1667 141.458 102.708 144.375 105.625C147.292 108.542 150.833 110 155 110ZM85 110C89.1667 110 92.7083 108.542 95.625 105.625C98.5417 102.708 100 99.1667 100 95C100 90.8333 98.5417 87.2917 95.625 84.375C92.7083 81.4583 89.1667 80 85 80C80.8333 80 77.2917 81.4583 74.375 84.375C71.4583 87.2917 70 90.8333 70 95C70 99.1667 71.4583 102.708 74.375 105.625C77.2917 108.542 80.8333 110 85 110ZM120 135C108.667 135 98.375 138.208 89.125 144.625C79.875 151.042 73.1667 159.5 69 170H85.5C89.1667 163.833 94.0417 158.958 100.125 155.375C106.208 151.792 112.833 150 120 150C127.167 150 133.792 151.792 139.875 155.375C145.958 158.958 150.833 163.833 154.5 170H171C166.833 159.5 160.125 151.042 150.875 144.625C141.625 138.208 131.333 135 120 135ZM120 220C106.167 220 93.1667 217.375 81 212.125C68.8333 206.875 58.25 199.75 49.25 190.75C40.25 181.75 33.125 171.167 27.875 159C22.625 146.833 20 133.833 20 120C20 106.167 22.625 93.1667 27.875 81C33.125 68.8333 40.25 58.25 49.25 49.25C58.25 40.25 68.8333 33.125 81 27.875C93.1667 22.625 106.167 20 120 20C133.833 20 146.833 22.625 159 27.875C171.167 33.125 181.75 40.25 190.75 49.25C199.75 58.25 206.875 68.8333 212.125 81C217.375 93.1667 220 106.167 220 120C220 133.833 217.375 146.833 212.125 159C206.875 171.167 199.75 181.75 190.75 190.75C181.75 199.75 171.167 206.875 159 212.125C146.833 217.375 133.833 220 120 220ZM120 200C142.333 200 161.25 192.25 176.75 176.75C192.25 161.25 200 142.333 200 120C200 97.6667 192.25 78.75 176.75 63.25C161.25 47.75 142.333 40 120 40C97.6667 40 78.75 47.75 63.25 63.25C47.75 78.75 40 97.6667 40 120C40 142.333 47.75 161.25 63.25 176.75C78.75 192.25 97.6667 200 120 200Z" fill="#CCCCCC"/>
</svg>
