<svg width="1154" height="89" viewBox="0 0 1154 89" fill="none" xmlns="http://www.w3.org/2000/svg">
<path d="M85.0867 33.3636H61.7884C61.956 31.3802 61.8442 29.5923 61.4531 28C61.062 26.4077 60.3916 25.0388 59.4418 23.8935C58.492 22.7202 57.2488 21.8262 55.7124 21.2116C54.1759 20.5971 52.3461 20.2898 50.223 20.2898C46.1444 20.2898 42.4988 21.3094 39.2862 23.3487C36.0736 25.3601 33.4058 28.2514 31.2827 32.0227C29.1596 35.7661 27.651 40.2358 26.7571 45.4318C25.9749 50.4602 25.947 54.6366 26.6733 57.9609C27.4276 61.2853 28.8942 63.7715 31.0732 65.4197C33.2801 67.0679 36.1435 67.892 39.6634 67.892C42.0099 67.892 44.161 67.6127 46.1165 67.054C48.0999 66.4953 49.8599 65.6991 51.3963 64.6655C52.9607 63.6039 54.2876 62.3468 55.3771 60.8942C56.4946 59.4136 57.3466 57.7794 57.9332 55.9915H81.3992C80.5052 59.6231 78.9129 63.3385 76.6222 67.1378C74.3314 70.9091 71.3703 74.3871 67.7386 77.5717C64.107 80.7285 59.8329 83.2846 54.9162 85.2401C49.9995 87.1955 44.4683 88.1733 38.3224 88.1733C30.277 88.1733 23.335 86.4134 17.4964 82.8935C11.6858 79.3736 7.46757 74.2334 4.84162 67.473C2.24361 60.7126 1.7268 52.4716 3.29119 42.75C4.85559 33.3636 7.94247 25.4998 12.5518 19.1584C17.1612 12.817 22.7623 8.04001 29.3551 4.82741C35.9479 1.61482 42.9598 0.00851953 50.3906 0.00851953C56.0057 0.00851953 61.0341 0.748812 65.4759 2.2294C69.9456 3.70999 73.7029 5.875 76.7479 8.72443C79.8208 11.5459 82.0836 15.0239 83.5362 19.1584C84.9889 23.2928 85.5057 28.0279 85.0867 33.3636ZM86.8571 87L101.104 1.18182H124.403L118.871 34.7045H149.712L155.243 1.18182H178.542L164.295 87H140.996L146.528 53.4773H115.687L110.155 87H86.8571ZM197.65 87H172.508L215.081 1.18182H246.928L261.008 87H235.866L227.485 24.8153H226.814L197.65 87ZM198.655 53.142H245.922L242.905 70.5739H195.638L198.655 53.142ZM321.914 28C322.166 25.2344 321.495 23.0694 319.903 21.505C318.311 19.9126 315.629 19.1165 311.857 19.1165C309.455 19.1165 307.444 19.3958 305.823 19.9545C304.231 20.5133 302.988 21.2815 302.094 22.2592C301.228 23.237 300.683 24.3684 300.46 25.6534C300.208 26.6591 300.222 27.581 300.502 28.419C300.809 29.2292 301.382 29.9695 302.22 30.6399C303.086 31.3104 304.217 31.911 305.614 32.4418C307.039 32.9725 308.729 33.4474 310.684 33.8665L317.389 35.375C321.97 36.3807 325.811 37.7076 328.912 39.3558C332.041 40.9761 334.499 42.9036 336.287 45.1385C338.075 47.3733 339.248 49.8736 339.807 52.6392C340.394 55.4048 340.408 58.4219 339.849 61.6903C338.899 67.3333 336.706 72.1103 333.27 76.0213C329.834 79.9323 325.35 82.9074 319.819 84.9467C314.288 86.986 307.891 88.0057 300.627 88.0057C293.196 88.0057 286.883 86.9022 281.687 84.6953C276.519 82.4605 272.776 79.0523 270.457 74.4709C268.166 69.8615 267.607 63.9811 268.781 56.8295H290.906C290.57 59.4555 290.85 61.6624 291.744 63.4503C292.638 65.2382 294.076 66.593 296.06 67.5149C298.043 68.4368 300.516 68.8977 303.477 68.8977C305.991 68.8977 308.142 68.5904 309.93 67.9759C311.718 67.3613 313.128 66.5092 314.162 65.4197C315.196 64.3303 315.824 63.0871 316.048 61.6903C316.271 60.4053 316.048 59.2599 315.377 58.2543C314.707 57.2486 313.492 56.3407 311.732 55.5305C309.972 54.7204 307.555 53.9801 304.482 53.3097L296.269 51.4659C288.978 49.7898 283.475 47.0241 279.759 43.169C276.044 39.3139 274.731 34.0341 275.82 27.3295C276.714 21.8542 278.963 17.0772 282.567 12.9986C286.199 8.89204 290.808 5.70738 296.395 3.4446C302.01 1.15388 308.226 0.00851953 315.042 0.00851953C321.97 0.00851953 327.767 1.16785 332.432 3.4865C337.125 5.80516 340.491 9.05966 342.531 13.25C344.598 17.4403 345.157 22.357 344.207 28H321.914ZM344.521 87L358.768 1.18182H382.067L376.535 34.7045H407.376L412.907 1.18182H436.206L421.959 87H398.66L404.192 53.4773H373.351L367.819 87H344.521ZM447.268 1.18182H476.265L488.166 49.7898H489.172L517.163 1.18182H546.16L531.913 87H509.118L517.331 37.3864H516.66L489.507 86.3295H475.763L464.868 37.0511H464.197L455.817 87H433.021L447.268 1.18182ZM565.247 87H540.105L582.679 1.18182H614.526L628.605 87H603.463L595.083 24.8153H594.412L565.247 87ZM566.253 53.142H613.52L610.503 70.5739H563.236L566.253 53.142ZM636.871 87L651.118 1.18182H674.416L668.885 34.7045H699.726L705.257 1.18182H728.555L714.308 87H691.01L696.541 53.4773H665.7L660.169 87H636.871ZM725.371 87L739.618 1.18182H776.828C783.365 1.18182 788.715 2.06179 792.877 3.82173C797.067 5.58167 800.029 8.06794 801.761 11.2805C803.521 14.4931 804.037 18.2784 803.311 22.6364C802.752 25.7652 801.551 28.6286 799.707 31.2266C797.892 33.7966 795.587 35.9756 792.793 37.7635C790.028 39.5234 786.941 40.7386 783.533 41.4091L783.365 42.2472C787.053 42.3589 790.265 43.2808 793.003 45.0128C795.741 46.7169 797.752 49.0914 799.037 52.1364C800.322 55.1534 800.629 58.6733 799.959 62.696C799.177 67.3892 797.263 71.5656 794.218 75.2251C791.173 78.8847 787.22 81.7621 782.359 83.8572C777.499 85.9524 771.967 87 765.766 87H725.371ZM751.854 68.3949H762.749C766.604 68.3949 769.635 67.6546 771.842 66.174C774.076 64.6934 775.403 62.5284 775.822 59.679C776.158 57.6676 775.99 55.9635 775.32 54.5668C774.649 53.17 773.518 52.1084 771.925 51.3821C770.333 50.6558 768.336 50.2926 765.933 50.2926H754.703L751.854 68.3949ZM757.217 35.8778H766.771C768.783 35.8778 770.626 35.5566 772.303 34.9141C773.979 34.2715 775.362 33.3357 776.451 32.1065C777.54 30.8774 778.225 29.3968 778.504 27.6648C778.923 24.983 778.281 22.9437 776.577 21.5469C774.901 20.1501 772.638 19.4517 769.788 19.4517H759.899L757.217 35.8778ZM826.484 87H801.342L843.915 1.18182H875.762L889.842 87H864.7L856.319 24.8153H855.648L826.484 87ZM827.489 53.142H874.756L871.739 70.5739H824.472L827.489 53.142ZM898.442 87L900.621 74.0938L950.235 19.9545H909.672L912.857 1.18182H982.92L980.741 14.0881L931.127 68.2273H971.689L968.505 87H898.442ZM1002.33 87H977.189L1019.76 1.18182H1051.61L1065.69 87H1040.55L1032.17 24.8153H1031.5L1002.33 87ZM1003.34 53.142H1050.6L1047.59 70.5739H1000.32L1003.34 53.142ZM1073.95 87L1088.2 1.18182H1125.24C1131.61 1.18182 1136.99 2.34114 1141.38 4.6598C1145.76 6.97845 1148.92 10.3168 1150.85 14.6747C1152.78 19.0327 1153.24 24.2566 1152.23 30.3466C1151.22 36.4924 1149 41.6745 1145.57 45.8928C1142.16 50.0831 1137.82 53.2678 1132.54 55.4467C1127.28 57.5978 1121.39 58.6733 1114.85 58.6733H1092.73L1095.74 40.571H1113.18C1115.91 40.571 1118.32 40.2358 1120.38 39.5653C1122.45 38.8669 1124.13 37.7775 1125.41 36.2969C1126.7 34.7884 1127.54 32.8049 1127.93 30.3466C1128.32 27.8883 1128.12 25.8909 1127.34 24.3544C1126.56 22.79 1125.26 21.6446 1123.44 20.9183C1121.63 20.1641 1119.38 19.7869 1116.7 19.7869H1108.48L1097.25 87H1073.95ZM1130.78 47.6108L1145.69 87H1120.38L1105.97 47.6108H1130.78Z" fill="#FD7D68"/>
</svg>
