<svg width="1153" height="91" viewBox="0 0 1153 91" fill="none" xmlns="http://www.w3.org/2000/svg">
<mask id="path-1-outside-1_76_516" maskUnits="userSpaceOnUse" x="0" y="0" width="1153" height="91" fill="black">
<rect fill="white" width="1153" height="91"/>
<path d="M84.0867 34.3636H60.7884C60.956 32.3802 60.8442 30.5923 60.4531 29C60.062 27.4077 59.3916 26.0388 58.4418 24.8935C57.492 23.7202 56.2488 22.8262 54.7124 22.2116C53.1759 21.5971 51.3461 21.2898 49.223 21.2898C45.1444 21.2898 41.4988 22.3094 38.2862 24.3487C35.0736 26.3601 32.4058 29.2514 30.2827 33.0227C28.1596 36.7661 26.651 41.2358 25.7571 46.4318C24.9749 51.4602 24.947 55.6366 25.6733 58.9609C26.4276 62.2853 27.8942 64.7715 30.0732 66.4197C32.2801 68.0679 35.1435 68.892 38.6634 68.892C41.0099 68.892 43.161 68.6127 45.1165 68.054C47.0999 67.4953 48.8599 66.6991 50.3963 65.6655C51.9607 64.6039 53.2876 63.3468 54.3771 61.8942C55.4946 60.4136 56.3466 58.7794 56.9332 56.9915H80.3992C79.5052 60.6231 77.9129 64.3385 75.6222 68.1378C73.3314 71.9091 70.3703 75.3871 66.7386 78.5717C63.107 81.7285 58.8329 84.2846 53.9162 86.2401C48.9995 88.1955 43.4683 89.1733 37.3224 89.1733C29.277 89.1733 22.335 87.4134 16.4964 83.8935C10.6858 80.3736 6.46757 75.2334 3.84162 68.473C1.24361 61.7126 0.726799 53.4716 2.29119 43.75C3.85559 34.3636 6.94247 26.4998 11.5518 20.1584C16.1612 13.817 21.7623 9.04001 28.3551 5.82741C34.9479 2.61482 41.9598 1.00852 49.3906 1.00852C55.0057 1.00852 60.0341 1.74881 64.4759 3.2294C68.9456 4.70999 72.7029 6.875 75.7479 9.72443C78.8208 12.5459 81.0836 16.0239 82.5362 20.1584C83.9889 24.2928 84.5057 29.0279 84.0867 34.3636ZM85.8571 88L100.104 2.18182H123.403L117.871 35.7045H148.712L154.243 2.18182H177.542L163.295 88H139.996L145.528 54.4773H114.687L109.155 88H85.8571ZM196.65 88H171.508L214.081 2.18182H245.928L260.008 88H234.866L226.485 25.8153H225.814L196.65 88ZM197.655 54.142H244.922L241.905 71.5739H194.638L197.655 54.142ZM320.914 29C321.166 26.2344 320.495 24.0694 318.903 22.505C317.311 20.9126 314.629 20.1165 310.857 20.1165C308.455 20.1165 306.444 20.3958 304.823 20.9545C303.231 21.5133 301.988 22.2815 301.094 23.2592C300.228 24.237 299.683 25.3684 299.46 26.6534C299.208 27.6591 299.222 28.581 299.502 29.419C299.809 30.2292 300.382 30.9695 301.22 31.6399C302.086 32.3104 303.217 32.911 304.614 33.4418C306.039 33.9725 307.729 34.4474 309.684 34.8665L316.389 36.375C320.97 37.3807 324.811 38.7076 327.912 40.3558C331.041 41.9761 333.499 43.9036 335.287 46.1385C337.075 48.3733 338.248 50.8736 338.807 53.6392C339.394 56.4048 339.408 59.4219 338.849 62.6903C337.899 68.3333 335.706 73.1103 332.27 77.0213C328.834 80.9323 324.35 83.9074 318.819 85.9467C313.288 87.986 306.891 89.0057 299.627 89.0057C292.196 89.0057 285.883 87.9022 280.687 85.6953C275.519 83.4605 271.776 80.0523 269.457 75.4709C267.166 70.8615 266.607 64.9811 267.781 57.8295H289.906C289.57 60.4555 289.85 62.6624 290.744 64.4503C291.638 66.2382 293.076 67.593 295.06 68.5149C297.043 69.4368 299.516 69.8977 302.477 69.8977C304.991 69.8977 307.142 69.5904 308.93 68.9759C310.718 68.3613 312.128 67.5092 313.162 66.4197C314.196 65.3303 314.824 64.0871 315.048 62.6903C315.271 61.4053 315.048 60.2599 314.377 59.2543C313.707 58.2486 312.492 57.3407 310.732 56.5305C308.972 55.7204 306.555 54.9801 303.482 54.3097L295.269 52.4659C287.978 50.7898 282.475 48.0241 278.759 44.169C275.044 40.3139 273.731 35.0341 274.82 28.3295C275.714 22.8542 277.963 18.0772 281.567 13.9986C285.199 9.89204 289.808 6.70738 295.395 4.4446C301.01 2.15388 307.226 1.00852 314.042 1.00852C320.97 1.00852 326.767 2.16785 331.432 4.4865C336.125 6.80516 339.491 10.0597 341.531 14.25C343.598 18.4403 344.157 23.357 343.207 29H320.914ZM343.521 88L357.768 2.18182H381.067L375.535 35.7045H406.376L411.907 2.18182H435.206L420.959 88H397.66L403.192 54.4773H372.351L366.819 88H343.521ZM446.268 2.18182H475.265L487.166 50.7898H488.172L516.163 2.18182H545.16L530.913 88H508.118L516.331 38.3864H515.66L488.507 87.3295H474.763L463.868 38.0511H463.197L454.817 88H432.021L446.268 2.18182ZM564.247 88H539.105L581.679 2.18182H613.526L627.605 88H602.463L594.083 25.8153H593.412L564.247 88ZM565.253 54.142H612.52L609.503 71.5739H562.236L565.253 54.142ZM635.871 88L650.118 2.18182H673.416L667.885 35.7045H698.726L704.257 2.18182H727.555L713.308 88H690.01L695.541 54.4773H664.7L659.169 88H635.871ZM724.371 88L738.618 2.18182H775.828C782.365 2.18182 787.715 3.06179 791.877 4.82173C796.067 6.58167 799.029 9.06794 800.761 12.2805C802.521 15.4931 803.037 19.2784 802.311 23.6364C801.752 26.7652 800.551 29.6286 798.707 32.2266C796.892 34.7966 794.587 36.9756 791.793 38.7635C789.028 40.5234 785.941 41.7386 782.533 42.4091L782.365 43.2472C786.053 43.3589 789.265 44.2808 792.003 46.0128C794.741 47.7169 796.752 50.0914 798.037 53.1364C799.322 56.1534 799.629 59.6733 798.959 63.696C798.177 68.3892 796.263 72.5656 793.218 76.2251C790.173 79.8847 786.22 82.7621 781.359 84.8572C776.499 86.9524 770.967 88 764.766 88H724.371ZM750.854 69.3949H761.749C765.604 69.3949 768.635 68.6546 770.842 67.174C773.076 65.6934 774.403 63.5284 774.822 60.679C775.158 58.6676 774.99 56.9635 774.32 55.5668C773.649 54.17 772.518 53.1084 770.925 52.3821C769.333 51.6558 767.336 51.2926 764.933 51.2926H753.703L750.854 69.3949ZM756.217 36.8778H765.771C767.783 36.8778 769.626 36.5566 771.303 35.9141C772.979 35.2715 774.362 34.3357 775.451 33.1065C776.54 31.8774 777.225 30.3968 777.504 28.6648C777.923 25.983 777.281 23.9437 775.577 22.5469C773.901 21.1501 771.638 20.4517 768.788 20.4517H758.899L756.217 36.8778ZM825.484 88H800.342L842.915 2.18182H874.762L888.842 88H863.7L855.319 25.8153H854.648L825.484 88ZM826.489 54.142H873.756L870.739 71.5739H823.472L826.489 54.142ZM897.442 88L899.621 75.0938L949.235 20.9545H908.672L911.857 2.18182H981.92L979.741 15.0881L930.127 69.2273H970.689L967.505 88H897.442ZM1001.33 88H976.189L1018.76 2.18182H1050.61L1064.69 88H1039.55L1031.17 25.8153H1030.5L1001.33 88ZM1002.34 54.142H1049.6L1046.59 71.5739H999.32L1002.34 54.142ZM1072.95 88L1087.2 2.18182H1124.24C1130.61 2.18182 1135.99 3.34114 1140.38 5.6598C1144.76 7.97845 1147.92 11.3168 1149.85 15.6747C1151.78 20.0327 1152.24 25.2566 1151.23 31.3466C1150.22 37.4924 1148 42.6745 1144.57 46.8928C1141.16 51.0831 1136.82 54.2678 1131.54 56.4467C1126.28 58.5978 1120.39 59.6733 1113.85 59.6733H1091.73L1094.74 41.571H1112.18C1114.91 41.571 1117.32 41.2358 1119.38 40.5653C1121.45 39.8669 1123.13 38.7775 1124.41 37.2969C1125.7 35.7884 1126.54 33.8049 1126.93 31.3466C1127.32 28.8883 1127.12 26.8909 1126.34 25.3544C1125.56 23.79 1124.26 22.6446 1122.44 21.9183C1120.63 21.1641 1118.38 20.7869 1115.7 20.7869H1107.48L1096.25 88H1072.95ZM1129.78 48.6108L1144.69 88H1119.38L1104.97 48.6108H1129.78Z"/>
</mask>
<path d="M84.0867 34.3636V35.3636H85.0112L85.0836 34.4419L84.0867 34.3636ZM60.7884 34.3636L59.7919 34.2794L59.7003 35.3636H60.7884V34.3636ZM60.4531 29L59.482 29.2385V29.2385L60.4531 29ZM58.4418 24.8935L57.6645 25.5227L57.672 25.5318L58.4418 24.8935ZM54.7124 22.2116L54.341 23.1401L54.7124 22.2116ZM38.2862 24.3487L38.8169 25.1963L38.8221 25.193L38.2862 24.3487ZM30.2827 33.0227L31.1525 33.5161L31.1541 33.5133L30.2827 33.0227ZM25.7571 46.4318L24.7716 46.2623L24.7702 46.2702L24.769 46.2781L25.7571 46.4318ZM25.6733 58.9609L24.6963 59.1744L24.6981 59.1822L25.6733 58.9609ZM30.0732 66.4197L29.4699 67.2173L29.4748 67.221L30.0732 66.4197ZM45.1165 68.054L44.8453 67.0914L44.8418 67.0925L45.1165 68.054ZM50.3963 65.6655L50.9545 66.4952L50.9578 66.493L50.3963 65.6655ZM54.3771 61.8942L53.5789 61.2918L53.5771 61.2942L54.3771 61.8942ZM56.9332 56.9915V55.9915H56.2089L55.9831 56.6797L56.9332 56.9915ZM80.3992 56.9915L81.3702 57.2305L81.6752 55.9915H80.3992V56.9915ZM75.6222 68.1378L76.4769 68.6569L76.4785 68.6541L75.6222 68.1378ZM66.7386 78.5717L67.3947 79.3265L67.398 79.3236L66.7386 78.5717ZM53.9162 86.2401L53.5466 85.3109L53.9162 86.2401ZM16.4964 83.8935L15.9783 84.7488L15.9801 84.7499L16.4964 83.8935ZM3.84162 68.473L2.90817 68.8317L2.90947 68.8351L3.84162 68.473ZM2.29119 43.75L1.30478 43.5856L1.30389 43.5911L2.29119 43.75ZM11.5518 20.1584L10.743 19.5704L11.5518 20.1584ZM28.3551 5.82741L28.7932 6.72636L28.3551 5.82741ZM64.4759 3.2294L64.1596 4.17808L64.1614 4.17867L64.4759 3.2294ZM75.7479 9.72443L75.0646 10.4546L75.0715 10.461L75.7479 9.72443ZM82.5362 20.1584L83.4797 19.8269V19.8269L82.5362 20.1584ZM84.0867 34.3636V33.3636H60.7884V34.3636V35.3636H84.0867V34.3636ZM60.7884 34.3636L61.7848 34.4478C61.9597 32.3785 61.8461 30.4791 61.4243 28.7615L60.4531 29L59.482 29.2385C59.8423 30.7056 59.9523 32.3819 59.7919 34.2794L60.7884 34.3636ZM60.4531 29L61.4243 28.7615C61.0008 27.0375 60.2673 25.5283 59.2115 24.2551L58.4418 24.8935L57.672 25.5318C58.5158 26.5494 59.1232 27.7778 59.482 29.2385L60.4531 29ZM58.4418 24.8935L59.219 24.2643C58.1516 22.9457 56.7632 21.9549 55.0837 21.2832L54.7124 22.2116L54.341 23.1401C55.7344 23.6975 56.8323 24.4947 57.6645 25.5227L58.4418 24.8935ZM54.7124 22.2116L55.0837 21.2832C53.4009 20.61 51.4389 20.2898 49.223 20.2898V21.2898V22.2898C51.2533 22.2898 52.9509 22.5841 54.341 23.1401L54.7124 22.2116ZM49.223 21.2898V20.2898C44.9688 20.2898 41.1347 21.3561 37.7503 23.5045L38.2862 24.3487L38.8221 25.193C41.8629 23.2628 45.32 22.2898 49.223 22.2898V21.2898ZM38.2862 24.3487L37.7556 23.5011C34.3823 25.6131 31.6046 28.6361 29.4113 32.5322L30.2827 33.0227L31.1541 33.5133C33.207 29.8667 35.7649 27.1071 38.8169 25.1963L38.2862 24.3487ZM30.2827 33.0227L29.4128 32.5294C27.2216 36.3929 25.6808 40.9772 24.7716 46.2623L25.7571 46.4318L26.7426 46.6014C27.6212 41.4944 29.0976 37.1393 31.1525 33.5161L30.2827 33.0227ZM25.7571 46.4318L24.769 46.2781C23.9763 51.3739 23.934 55.6852 24.6963 59.1744L25.6733 58.9609L26.6502 58.7475C25.96 55.588 25.9735 51.5465 26.7452 46.5855L25.7571 46.4318ZM25.6733 58.9609L24.6981 59.1822C25.4912 62.6778 27.0599 65.3943 29.4699 67.2173L30.0732 66.4197L30.6764 65.6222C28.7285 64.1488 27.3639 61.8928 26.6485 58.7397L25.6733 58.9609ZM30.0732 66.4197L29.4748 67.221C31.8973 69.0302 34.9882 69.892 38.6634 69.892V68.892V67.892C35.2988 67.892 32.6628 67.1057 30.6715 65.6185L30.0732 66.4197ZM38.6634 68.892V69.892C41.0889 69.892 43.3339 69.6033 45.3912 69.0155L45.1165 68.054L44.8418 67.0925C42.9881 67.6221 40.931 67.892 38.6634 67.892V68.892ZM45.1165 68.054L45.3876 69.0165C47.4618 68.4323 49.3207 67.5943 50.9545 66.4952L50.3963 65.6655L49.8381 64.8358C48.399 65.8039 46.7381 66.5583 44.8453 67.0914L45.1165 68.054ZM50.3963 65.6655L50.9578 66.493C52.6099 65.3719 54.0186 64.0389 55.1771 62.4942L54.3771 61.8942L53.5771 61.2942C52.5567 62.6547 51.3115 63.836 49.8348 64.838L50.3963 65.6655ZM54.3771 61.8942L55.1753 62.4966C56.36 60.9269 57.2629 59.1942 57.8834 57.3032L56.9332 56.9915L55.9831 56.6797C55.4302 58.3645 54.6291 59.9003 53.5789 61.2918L54.3771 61.8942ZM56.9332 56.9915V57.9915H80.3992V56.9915V55.9915H56.9332V56.9915ZM80.3992 56.9915L79.4281 56.7525C78.5622 60.2702 77.0139 63.8928 74.7658 67.6214L75.6222 68.1378L76.4785 68.6541C78.8118 64.7843 80.4482 60.976 81.3702 57.2305L80.3992 56.9915ZM75.6222 68.1378L74.7675 67.6186C72.5344 71.2951 69.6415 74.6961 66.0793 77.8199L66.7386 78.5717L67.398 79.3236C71.099 76.0781 74.1285 72.5231 76.4769 68.6569L75.6222 68.1378ZM66.7386 78.5717L66.0826 77.817C62.544 80.8929 58.369 83.3928 53.5466 85.3109L53.9162 86.2401L54.2858 87.1693C59.2967 85.1763 63.67 82.564 67.3947 79.3265L66.7386 78.5717ZM53.9162 86.2401L53.5466 85.3109C48.7649 87.2127 43.3619 88.1733 37.3224 88.1733V89.1733V90.1733C43.5747 90.1733 49.2341 89.1784 54.2858 87.1693L53.9162 86.2401ZM37.3224 89.1733V88.1733C29.4258 88.1733 22.6694 86.4473 17.0128 83.0371L16.4964 83.8935L15.9801 84.7499C22.0006 88.3794 29.1281 90.1733 37.3224 90.1733V89.1733ZM16.4964 83.8935L17.0146 83.0382C11.4057 79.6405 7.32563 74.6806 4.77377 68.1109L3.84162 68.473L2.90947 68.8351C5.60951 75.7862 9.96594 81.1067 15.9783 84.7488L16.4964 83.8935ZM3.84162 68.473L4.77506 68.1143C2.25915 61.5675 1.73245 53.5164 3.27849 43.9089L2.29119 43.75L1.30389 43.5911C-0.278854 53.4268 0.228071 61.8577 2.90817 68.8317L3.84162 68.473ZM2.29119 43.75L3.27759 43.9144C4.82185 34.6488 7.86005 26.9382 12.3607 20.7463L11.5518 20.1584L10.743 19.5704C6.02489 26.0613 2.88932 34.0785 1.3048 43.5856L2.29119 43.75ZM11.5518 20.1584L12.3607 20.7463C16.8807 14.528 22.3577 9.8623 28.7932 6.72636L28.3551 5.82741L27.9171 4.92846C21.167 8.21771 15.4418 13.106 10.743 19.5704L11.5518 20.1584ZM28.3551 5.82741L28.7932 6.72636C35.2477 3.58117 42.1095 2.00852 49.3906 2.00852V1.00852V0.00851953C41.81 0.00851953 34.6482 1.64847 27.9171 4.92846L28.3551 5.82741ZM49.3906 1.00852V2.00852C54.919 2.00852 59.8378 2.73748 64.1596 4.17808L64.4759 3.2294L64.7921 2.28071C60.2304 0.760144 55.0924 0.00851953 49.3906 0.00851953V1.00852ZM64.4759 3.2294L64.1614 4.17867C68.5115 5.61965 72.1381 7.71606 75.0646 10.4546L75.7479 9.72443L76.4311 8.99426C73.2677 6.03393 69.3796 3.80032 64.7903 2.28012L64.4759 3.2294ZM75.7479 9.72443L75.0715 10.461C78.0173 13.1658 80.1917 16.5022 81.5928 20.4899L82.5362 20.1584L83.4797 19.8269C81.9754 15.5456 79.6242 11.926 76.4242 8.98783L75.7479 9.72443ZM82.5362 20.1584L81.5928 20.4899C82.9902 24.4673 83.5002 29.0585 83.0897 34.2853L84.0867 34.3636L85.0836 34.4419C85.5112 28.9974 84.9875 24.1184 83.4797 19.8269L82.5362 20.1584ZM85.8571 88L84.8706 87.8362L84.6774 89H85.8571V88ZM100.104 2.18182V1.18182H99.2566L99.1177 2.01804L100.104 2.18182ZM123.403 2.18182L124.389 2.34461L124.581 1.18182H123.403V2.18182ZM117.871 35.7045L116.885 35.5417L116.693 36.7045H117.871V35.7045ZM148.712 35.7045V36.7045H149.561L149.699 35.8673L148.712 35.7045ZM154.243 2.18182V1.18182H153.395L153.257 2.01902L154.243 2.18182ZM177.542 2.18182L178.528 2.34559L178.721 1.18182H177.542V2.18182ZM163.295 88V89H164.142L164.281 88.1638L163.295 88ZM139.996 88L139.01 87.8372L138.818 89H139.996V88ZM145.528 54.4773L146.514 54.6401L146.706 53.4773H145.528V54.4773ZM114.687 54.4773V53.4773H113.838L113.7 54.3145L114.687 54.4773ZM109.155 88V89H110.004L110.142 88.1628L109.155 88ZM85.8571 88L86.8436 88.1638L101.091 2.34559L100.104 2.18182L99.1177 2.01804L84.8706 87.8362L85.8571 88ZM100.104 2.18182V3.18182H123.403V2.18182V1.18182H100.104V2.18182ZM123.403 2.18182L122.416 2.01902L116.885 35.5417L117.871 35.7045L118.858 35.8673L124.389 2.34461L123.403 2.18182ZM117.871 35.7045V36.7045H148.712V35.7045V34.7045H117.871V35.7045ZM148.712 35.7045L149.699 35.8673L155.23 2.34461L154.243 2.18182L153.257 2.01902L147.726 35.5417L148.712 35.7045ZM154.243 2.18182V3.18182H177.542V2.18182V1.18182H154.243V2.18182ZM177.542 2.18182L176.555 2.01804L162.308 87.8362L163.295 88L164.281 88.1638L178.528 2.34559L177.542 2.18182ZM163.295 88V87H139.996V88V89H163.295V88ZM139.996 88L140.983 88.1628L146.514 54.6401L145.528 54.4773L144.541 54.3145L139.01 87.8372L139.996 88ZM145.528 54.4773V53.4773H114.687V54.4773V55.4773H145.528V54.4773ZM114.687 54.4773L113.7 54.3145L108.169 87.8372L109.155 88L110.142 88.1628L115.673 54.6401L114.687 54.4773ZM109.155 88V87H85.8571V88V89H109.155V88ZM196.65 88V89H197.285L197.555 88.4246L196.65 88ZM171.508 88L170.612 87.5556L169.895 89H171.508V88ZM214.081 2.18182V1.18182H213.461L213.186 1.7374L214.081 2.18182ZM245.928 2.18182L246.915 2.01992L246.777 1.18182H245.928V2.18182ZM260.008 88V89H261.185L260.994 87.8381L260.008 88ZM234.866 88L233.875 88.1336L233.991 89H234.866V88ZM226.485 25.8153L227.476 25.6818L227.359 24.8153H226.485V25.8153ZM225.814 25.8153V24.8153H225.179L224.909 25.3907L225.814 25.8153ZM197.655 54.142V53.142H196.814L196.67 53.9715L197.655 54.142ZM244.922 54.142L245.908 54.3126L246.11 53.142H244.922V54.142ZM241.905 71.5739V72.5739H242.747L242.891 71.7444L241.905 71.5739ZM194.638 71.5739L193.653 71.4033L193.45 72.5739H194.638V71.5739ZM196.65 88V87H171.508V88V89H196.65V88ZM171.508 88L172.403 88.4444L214.977 2.62623L214.081 2.18182L213.186 1.7374L170.612 87.5556L171.508 88ZM214.081 2.18182V3.18182H245.928V2.18182V1.18182H214.081V2.18182ZM245.928 2.18182L244.941 2.34371L259.021 88.1619L260.008 88L260.994 87.8381L246.915 2.01992L245.928 2.18182ZM260.008 88V87H234.866V88V89H260.008V88ZM234.866 88L235.857 87.8664L227.476 25.6818L226.485 25.8153L225.494 25.9489L233.875 88.1336L234.866 88ZM226.485 25.8153V24.8153H225.814V25.8153V26.8153H226.485V25.8153ZM225.814 25.8153L224.909 25.3907L195.744 87.5754L196.65 88L197.555 88.4246L226.72 26.24L225.814 25.8153ZM197.655 54.142V55.142H244.922V54.142V53.142H197.655V54.142ZM244.922 54.142L243.937 53.9715L240.92 71.4033L241.905 71.5739L242.891 71.7444L245.908 54.3126L244.922 54.142ZM241.905 71.5739V70.5739H194.638V71.5739V72.5739H241.905V71.5739ZM194.638 71.5739L195.624 71.7444L198.641 54.3126L197.655 54.142L196.67 53.9715L193.653 71.4033L194.638 71.5739ZM320.914 29L319.918 28.9095L319.819 30H320.914V29ZM318.903 22.505L318.196 23.2121L318.202 23.2183L318.903 22.505ZM304.823 20.9545L304.497 20.0092L304.492 20.0109L304.823 20.9545ZM301.094 23.2592L300.356 22.5845L300.351 22.5903L300.345 22.5962L301.094 23.2592ZM299.46 26.6534L300.43 26.8959L300.439 26.8606L300.445 26.8247L299.46 26.6534ZM299.502 29.419L298.553 29.7353L298.559 29.7546L298.567 29.7737L299.502 29.419ZM301.22 31.6399L300.595 32.4208L300.601 32.4258L300.607 32.4306L301.22 31.6399ZM304.614 33.4418L304.259 34.3766L304.265 34.3788L304.614 33.4418ZM309.684 34.8665L309.904 33.8908L309.894 33.8887L309.684 34.8665ZM316.389 36.375L316.169 37.3506L316.174 37.3517L316.389 36.375ZM327.912 40.3558L327.443 41.2389L327.452 41.2438L327.912 40.3558ZM335.287 46.1385L334.506 46.7632H334.506L335.287 46.1385ZM338.807 53.6392L337.827 53.8372L337.829 53.8467L338.807 53.6392ZM338.849 62.6903L337.863 62.5218L337.863 62.5244L338.849 62.6903ZM332.27 77.0213L331.519 76.3613L332.27 77.0213ZM318.819 85.9467L318.473 85.0085L318.819 85.9467ZM280.687 85.6953L280.29 86.6132L280.296 86.6157L280.687 85.6953ZM269.457 75.4709L268.561 75.9159L268.565 75.9224L269.457 75.4709ZM267.781 57.8295V56.8295H266.931L266.794 57.6676L267.781 57.8295ZM289.906 57.8295L290.898 57.9562L291.042 56.8295H289.906V57.8295ZM290.744 64.4503L291.638 64.0031L290.744 64.4503ZM295.06 68.5149L294.638 69.4217V69.4218L295.06 68.5149ZM313.162 66.4197L312.437 65.7315L313.162 66.4197ZM315.048 62.6903L314.062 62.519L314.06 62.5323L315.048 62.6903ZM314.377 59.2543L313.545 59.809L314.377 59.2543ZM310.732 56.5305L310.314 57.4389L310.732 56.5305ZM303.482 54.3097L303.263 55.2854L303.269 55.2867L303.482 54.3097ZM295.269 52.4659L295.045 53.4405L295.05 53.4416L295.269 52.4659ZM274.82 28.3295L273.834 28.1684L273.833 28.1691L274.82 28.3295ZM281.567 13.9986L280.818 13.3361L280.818 13.3364L281.567 13.9986ZM295.395 4.4446L295.77 5.37147L295.773 5.37051L295.395 4.4446ZM331.432 4.4865L330.987 5.382L330.989 5.38305L331.432 4.4865ZM341.531 14.25L340.632 14.6876L340.634 14.6924L341.531 14.25ZM343.207 29V30H344.053L344.193 29.166L343.207 29ZM320.914 29L321.91 29.0905C322.181 26.106 321.461 23.6165 319.604 21.7916L318.903 22.505L318.202 23.2183C319.529 24.5222 320.15 26.3628 319.918 28.9095L320.914 29ZM318.903 22.505L319.61 21.7979C317.737 19.9253 314.725 19.1165 310.857 19.1165V20.1165V21.1165C314.532 21.1165 316.884 21.9 318.196 23.2121L318.903 22.505ZM310.857 20.1165V19.1165C308.385 19.1165 306.255 19.403 304.497 20.0092L304.823 20.9545L305.149 21.8999C306.632 21.3887 308.525 21.1165 310.857 21.1165V20.1165ZM304.823 20.9545L304.492 20.0109C302.786 20.6097 301.388 21.456 300.356 22.5845L301.094 23.2592L301.832 23.934C302.588 23.1069 303.676 22.4168 305.154 21.8981L304.823 20.9545ZM301.094 23.2592L300.345 22.5962C299.357 23.7125 298.73 25.0141 298.474 26.4821L299.46 26.6534L300.445 26.8247C300.637 25.7226 301.099 24.7614 301.843 23.9223L301.094 23.2592ZM299.46 26.6534L298.49 26.4109C298.2 27.5685 298.204 28.6874 298.553 29.7353L299.502 29.419L300.45 29.1028C300.241 28.4745 300.216 27.7497 300.43 26.8959L299.46 26.6534ZM299.502 29.419L298.567 29.7737C298.951 30.7867 299.65 31.6651 300.595 32.4208L301.22 31.6399L301.844 30.859C301.113 30.2739 300.667 29.6716 300.437 29.0644L299.502 29.419ZM301.22 31.6399L300.607 32.4306C301.574 33.179 302.801 33.8225 304.259 34.3765L304.614 33.4418L304.969 32.507C303.633 31.9994 302.597 31.4417 301.832 30.8492L301.22 31.6399ZM304.614 33.4418L304.265 34.3788C305.746 34.9309 307.486 35.418 309.475 35.8443L309.684 34.8665L309.894 33.8887C307.972 33.4768 306.331 33.0142 304.963 32.5047L304.614 33.4418ZM309.684 34.8665L309.465 35.8421L316.169 37.3506L316.389 36.375L316.608 35.3994L309.904 33.8909L309.684 34.8665ZM316.389 36.375L316.174 37.3517C320.695 38.344 324.444 39.6449 327.443 41.2388L327.912 40.3558L328.381 39.4728C325.179 37.7704 321.246 36.4173 316.603 35.3983L316.389 36.375ZM327.912 40.3558L327.452 41.2438C330.485 42.8142 332.824 44.6598 334.506 46.7632L335.287 46.1385L336.068 45.5138C334.175 43.1475 331.597 41.1379 328.372 39.4678L327.912 40.3558ZM335.287 46.1385L334.506 46.7632C336.196 48.8756 337.3 51.23 337.827 53.8372L338.807 53.6392L339.787 53.4412C339.197 50.5172 337.954 47.8711 336.068 45.5138L335.287 46.1385ZM338.807 53.6392L337.829 53.8467C338.385 56.4692 338.404 59.3569 337.863 62.5218L338.849 62.6903L339.835 62.8588C340.411 59.4869 340.402 56.3405 339.785 53.4317L338.807 53.6392ZM338.849 62.6903L337.863 62.5244C336.941 68.0028 334.82 72.6036 331.519 76.3613L332.27 77.0213L333.021 77.6813C336.592 73.617 338.858 68.6638 339.835 62.8563L338.849 62.6903ZM332.27 77.0213L331.519 76.3613C328.206 80.1315 323.869 83.019 318.473 85.0085L318.819 85.9467L319.165 86.885C324.831 84.7958 329.462 81.7331 333.021 77.6813L332.27 77.0213ZM318.819 85.9467L318.473 85.0085C313.075 86.9987 306.799 88.0057 299.627 88.0057V89.0057V90.0057C306.982 90.0057 313.501 88.9734 319.165 86.885L318.819 85.9467ZM299.627 89.0057V88.0057C292.29 88.0057 286.118 86.9155 281.078 84.7749L280.687 85.6953L280.296 86.6157C285.648 88.8889 292.103 90.0057 299.627 90.0057V89.0057ZM280.687 85.6953L281.084 84.7775C276.108 82.6258 272.552 79.3716 270.349 75.0193L269.457 75.4709L268.565 75.9224C270.999 80.733 274.93 84.2951 280.29 86.6132L280.687 85.6953ZM269.457 75.4709L270.352 75.0258C268.186 70.6668 267.615 65.0179 268.768 57.9914L267.781 57.8295L266.794 57.6676C265.6 64.9442 266.146 71.0562 268.561 75.9159L269.457 75.4709ZM267.781 57.8295V58.8295H289.906V57.8295V56.8295H267.781V57.8295ZM289.906 57.8295L288.914 57.7029C288.561 60.4629 288.842 62.8831 289.849 64.8975L290.744 64.4503L291.638 64.0031C290.858 62.4418 290.58 60.4481 290.898 57.9562L289.906 57.8295ZM290.744 64.4503L289.849 64.8975C290.854 66.9071 292.47 68.4141 294.638 69.4217L295.06 68.5149L295.481 67.6081C293.682 66.772 292.421 65.5693 291.638 64.0031L290.744 64.4503ZM295.06 68.5149L294.638 69.4218C296.792 70.4227 299.419 70.8977 302.477 70.8977V69.8977V68.8977C299.612 68.8977 297.295 68.4509 295.481 67.6081L295.06 68.5149ZM302.477 69.8977V70.8977C305.067 70.8977 307.334 70.5817 309.255 69.9215L308.93 68.9759L308.605 68.0302C306.95 68.5991 304.915 68.8977 302.477 68.8977V69.8977ZM308.93 68.9759L309.255 69.9215C311.157 69.2679 312.718 68.3406 313.888 67.108L313.162 66.4197L312.437 65.7315C311.539 66.6778 310.279 67.4547 308.605 68.0302L308.93 68.9759ZM313.162 66.4197L313.888 67.108C315.051 65.8817 315.778 64.4568 316.035 62.8483L315.048 62.6903L314.06 62.5323C313.871 63.7174 313.34 64.7788 312.437 65.7315L313.162 66.4197ZM315.048 62.6903L316.033 62.8617C316.297 61.3459 316.034 59.9365 315.209 58.6996L314.377 59.2543L313.545 59.809C314.062 60.5834 314.246 61.4647 314.063 62.519L315.048 62.6903ZM314.377 59.2543L315.209 58.6996C314.392 57.4733 312.986 56.4674 311.15 55.6222L310.732 56.5305L310.314 57.4389C311.997 58.214 313.022 59.0239 313.545 59.809L314.377 59.2543ZM310.732 56.5305L311.15 55.6222C309.297 54.769 306.801 54.0102 303.696 53.3326L303.482 54.3097L303.269 55.2867C306.309 55.95 308.647 56.6718 310.314 57.4389L310.732 56.5305ZM303.482 54.3097L303.701 53.3339L295.488 51.4902L295.269 52.4659L295.05 53.4416L303.263 55.2854L303.482 54.3097ZM295.269 52.4659L295.493 51.4913C288.319 49.842 283.017 47.1453 279.479 43.4751L278.759 44.169L278.039 44.863C281.933 48.903 287.637 51.7375 295.045 53.4405L295.269 52.4659ZM278.759 44.169L279.479 43.4751C276.04 39.9066 274.754 34.9758 275.808 28.4899L274.82 28.3295L273.833 28.1691C272.708 35.0924 274.048 40.7213 278.039 44.863L278.759 44.169ZM274.82 28.3295L275.807 28.4907C276.672 23.1975 278.84 18.5952 282.316 14.6607L281.567 13.9986L280.818 13.3364C277.087 17.5592 274.757 22.5108 273.834 28.1684L274.82 28.3295ZM281.567 13.9986L282.316 14.661C285.835 10.6815 290.312 7.58207 295.77 5.37147L295.395 4.4446L295.02 3.51773C289.304 5.83269 284.562 9.10256 280.818 13.3361L281.567 13.9986ZM295.395 4.4446L295.773 5.37051C301.254 3.13442 307.339 2.00852 314.042 2.00852V1.00852V0.00851953C307.112 0.00851953 300.766 1.17334 295.017 3.51868L295.395 4.4446ZM314.042 1.00852V2.00852C320.864 2.00852 326.498 3.1509 330.987 5.382L331.432 4.4865L331.877 3.59101C327.036 1.1848 321.076 0.00851953 314.042 0.00851953V1.00852ZM331.432 4.4865L330.989 5.38305C335.509 7.61627 338.701 10.721 340.632 14.6876L341.531 14.25L342.43 13.8124C340.282 9.39832 336.741 5.99405 331.875 3.58995L331.432 4.4865ZM341.531 14.25L340.634 14.6924C342.589 18.6555 343.144 23.3508 342.221 28.834L343.207 29L344.193 29.166C345.17 23.3632 344.607 18.2252 342.428 13.8076L341.531 14.25ZM343.207 29V28H320.914V29V30H343.207V29ZM343.521 88L342.535 87.8362L342.341 89H343.521V88ZM357.768 2.18182V1.18182H356.921L356.782 2.01804L357.768 2.18182ZM381.067 2.18182L382.053 2.34461L382.245 1.18182H381.067V2.18182ZM375.535 35.7045L374.549 35.5417L374.357 36.7045H375.535V35.7045ZM406.376 35.7045V36.7045H407.225L407.363 35.8673L406.376 35.7045ZM411.908 2.18182V1.18182H411.059L410.921 2.01902L411.908 2.18182ZM435.206 2.18182L436.192 2.34559L436.385 1.18182H435.206V2.18182ZM420.959 88V89H421.806L421.945 88.1638L420.959 88ZM397.66 88L396.674 87.8372L396.482 89H397.66V88ZM403.192 54.4773L404.178 54.6401L404.37 53.4773H403.192V54.4773ZM372.351 54.4773V53.4773H371.502L371.364 54.3145L372.351 54.4773ZM366.819 88V89H367.668L367.806 88.1628L366.819 88ZM343.521 88L344.508 88.1638L358.755 2.34559L357.768 2.18182L356.782 2.01804L342.535 87.8362L343.521 88ZM357.768 2.18182V3.18182H381.067V2.18182V1.18182H357.768V2.18182ZM381.067 2.18182L380.08 2.01902L374.549 35.5417L375.535 35.7045L376.522 35.8673L382.053 2.34461L381.067 2.18182ZM375.535 35.7045V36.7045H406.376V35.7045V34.7045H375.535V35.7045ZM406.376 35.7045L407.363 35.8673L412.894 2.34461L411.908 2.18182L410.921 2.01902L405.39 35.5417L406.376 35.7045ZM411.908 2.18182V3.18182H435.206V2.18182V1.18182H411.908V2.18182ZM435.206 2.18182L434.219 2.01804L419.972 87.8362L420.959 88L421.945 88.1638L436.192 2.34559L435.206 2.18182ZM420.959 88V87H397.66V88V89H420.959V88ZM397.66 88L398.647 88.1628L404.178 54.6401L403.192 54.4773L402.205 54.3145L396.674 87.8372L397.66 88ZM403.192 54.4773V53.4773H372.351V54.4773V55.4773H403.192V54.4773ZM372.351 54.4773L371.364 54.3145L365.833 87.8372L366.819 88L367.806 88.1628L373.337 54.6401L372.351 54.4773ZM366.819 88V87H343.521V88V89H366.819V88ZM446.268 2.18182V1.18182H445.421L445.282 2.01804L446.268 2.18182ZM475.265 2.18182L476.237 1.94401L476.05 1.18182H475.265V2.18182ZM487.166 50.7898L486.195 51.0276L486.381 51.7898H487.166V50.7898ZM488.172 50.7898V51.7898H488.75L489.038 51.2888L488.172 50.7898ZM516.163 2.18182V1.18182H515.585L515.297 1.68278L516.163 2.18182ZM545.16 2.18182L546.147 2.34559L546.34 1.18182H545.16V2.18182ZM530.913 88V89H531.761L531.9 88.1638L530.913 88ZM508.118 88L507.131 87.8367L506.939 89H508.118V88ZM516.331 38.3864L517.317 38.5497L517.51 37.3864H516.331V38.3864ZM515.66 38.3864V37.3864H515.072L514.786 37.9012L515.66 38.3864ZM488.507 87.3295V88.3295H489.096L489.381 87.8147L488.507 87.3295ZM474.763 87.3295L473.786 87.5454L473.96 88.3295H474.763V87.3295ZM463.868 38.0511L464.844 37.8353L464.671 37.0511H463.868V38.0511ZM463.197 38.0511V37.0511H462.351L462.211 37.8857L463.197 38.0511ZM454.817 88V89H455.663L455.803 88.1655L454.817 88ZM432.021 88L431.035 87.8362L430.841 89H432.021V88ZM446.268 2.18182V3.18182H475.265V2.18182V1.18182H446.268V2.18182ZM475.265 2.18182L474.294 2.41962L486.195 51.0276L487.166 50.7898L488.137 50.552L476.237 1.94401L475.265 2.18182ZM487.166 50.7898V51.7898H488.172V50.7898V49.7898H487.166V50.7898ZM488.172 50.7898L489.038 51.2888L517.03 2.68085L516.163 2.18182L515.297 1.68278L487.305 50.2907L488.172 50.7898ZM516.163 2.18182V3.18182H545.16V2.18182V1.18182H516.163V2.18182ZM545.16 2.18182L544.174 2.01804L529.927 87.8362L530.913 88L531.9 88.1638L546.147 2.34559L545.16 2.18182ZM530.913 88V87H508.118V88V89H530.913V88ZM508.118 88L509.104 88.1633L517.317 38.5497L516.331 38.3864L515.344 38.223L507.131 87.8367L508.118 88ZM516.331 38.3864V37.3864H515.66V38.3864V39.3864H516.331V38.3864ZM515.66 38.3864L514.786 37.9012L487.632 86.8444L488.507 87.3295L489.381 87.8147L516.535 38.8715L515.66 38.3864ZM488.507 87.3295V86.3295H474.763V87.3295V88.3295H488.507V87.3295ZM474.763 87.3295L475.739 87.1137L464.844 37.8353L463.868 38.0511L462.891 38.267L473.786 87.5454L474.763 87.3295ZM463.868 38.0511V37.0511H463.197V38.0511V39.0511H463.868V38.0511ZM463.197 38.0511L462.211 37.8857L453.83 87.8345L454.817 88L455.803 88.1655L464.183 38.2166L463.197 38.0511ZM454.817 88V87H432.021V88V89H454.817V88ZM432.021 88L433.008 88.1638L447.255 2.34559L446.268 2.18182L445.282 2.01804L431.035 87.8362L432.021 88ZM564.247 88V89H564.883L565.153 88.4246L564.247 88ZM539.105 88L538.209 87.5556L537.493 89H539.105V88ZM581.679 2.18182V1.18182H581.059L580.783 1.7374L581.679 2.18182ZM613.526 2.18182L614.513 2.01992L614.375 1.18182H613.526V2.18182ZM627.605 88V89H628.783L628.592 87.8381L627.605 88ZM602.463 88L601.472 88.1336L601.589 89H602.463V88ZM594.083 25.8153L595.074 25.6818L594.957 24.8153H594.083V25.8153ZM593.412 25.8153V24.8153H592.777L592.507 25.3907L593.412 25.8153ZM565.253 54.142V53.142H564.411L564.268 53.9715L565.253 54.142ZM612.52 54.142L613.505 54.3126L613.708 53.142H612.52V54.142ZM609.503 71.5739V72.5739H610.345L610.488 71.7444L609.503 71.5739ZM562.236 71.5739L561.251 71.4033L561.048 72.5739H562.236V71.5739ZM564.247 88V87H539.105V88V89H564.247V88ZM539.105 88L540.001 88.4444L582.575 2.62623L581.679 2.18182L580.783 1.7374L538.209 87.5556L539.105 88ZM581.679 2.18182V3.18182H613.526V2.18182V1.18182H581.679V2.18182ZM613.526 2.18182L612.539 2.34371L626.618 88.1619L627.605 88L628.592 87.8381L614.513 2.01992L613.526 2.18182ZM627.605 88V87H602.463V88V89H627.605V88ZM602.463 88L603.454 87.8664L595.074 25.6818L594.083 25.8153L593.092 25.9489L601.472 88.1336L602.463 88ZM594.083 25.8153V24.8153H593.412V25.8153V26.8153H594.083V25.8153ZM593.412 25.8153L592.507 25.3907L563.342 87.5754L564.247 88L565.153 88.4246L594.318 26.24L593.412 25.8153ZM565.253 54.142V55.142H612.52V54.142V53.142H565.253V54.142ZM612.52 54.142L611.535 53.9715L608.518 71.4033L609.503 71.5739L610.488 71.7444L613.505 54.3126L612.52 54.142ZM609.503 71.5739V70.5739H562.236V71.5739V72.5739H609.503V71.5739ZM562.236 71.5739L563.221 71.7444L566.238 54.3126L565.253 54.142L564.268 53.9715L561.251 71.4033L562.236 71.5739ZM635.871 88L634.884 87.8362L634.691 89H635.871V88ZM650.118 2.18182V1.18182H649.27L649.131 2.01804L650.118 2.18182ZM673.416 2.18182L674.403 2.34461L674.595 1.18182H673.416V2.18182ZM667.885 35.7045L666.898 35.5417L666.706 36.7045H667.885V35.7045ZM698.726 35.7045V36.7045H699.574L699.713 35.8673L698.726 35.7045ZM704.257 2.18182V1.18182H703.409L703.27 2.01902L704.257 2.18182ZM727.555 2.18182L728.542 2.34559L728.735 1.18182H727.555V2.18182ZM713.308 88V89H714.156L714.295 88.1638L713.308 88ZM690.01 88L689.023 87.8372L688.831 89H690.01V88ZM695.541 54.4773L696.528 54.6401L696.72 53.4773H695.541V54.4773ZM664.7 54.4773V53.4773H663.852L663.714 54.3145L664.7 54.4773ZM659.169 88V89H660.018L660.156 88.1628L659.169 88ZM635.871 88L636.857 88.1638L651.104 2.34559L650.118 2.18182L649.131 2.01804L634.884 87.8362L635.871 88ZM650.118 2.18182V3.18182H673.416V2.18182V1.18182H650.118V2.18182ZM673.416 2.18182L672.43 2.01902L666.898 35.5417L667.885 35.7045L668.872 35.8673L674.403 2.34461L673.416 2.18182ZM667.885 35.7045V36.7045H698.726V35.7045V34.7045H667.885V35.7045ZM698.726 35.7045L699.713 35.8673L705.244 2.34461L704.257 2.18182L703.27 2.01902L697.739 35.5417L698.726 35.7045ZM704.257 2.18182V3.18182H727.555V2.18182V1.18182H704.257V2.18182ZM727.555 2.18182L726.569 2.01804L712.322 87.8362L713.308 88L714.295 88.1638L728.542 2.34559L727.555 2.18182ZM713.308 88V87H690.01V88V89H713.308V88ZM690.01 88L690.997 88.1628L696.528 54.6401L695.541 54.4773L694.555 54.3145L689.023 87.8372L690.01 88ZM695.541 54.4773V53.4773H664.7V54.4773V55.4773H695.541V54.4773ZM664.7 54.4773L663.714 54.3145L658.182 87.8372L659.169 88L660.156 88.1628L665.687 54.6401L664.7 54.4773ZM659.169 88V87H635.871V88V89H659.169V88ZM724.371 88L723.384 87.8362L723.191 89H724.371V88ZM738.618 2.18182V1.18182H737.77L737.631 2.01804L738.618 2.18182ZM791.877 4.82173L791.488 5.74279L791.49 5.74372L791.877 4.82173ZM800.761 12.2805L799.88 12.7551L799.884 12.761L800.761 12.2805ZM802.311 23.6364L803.296 23.8122L803.297 23.8008L802.311 23.6364ZM798.707 32.2266L797.892 31.6478L797.891 31.6495L798.707 32.2266ZM791.793 38.7635L792.33 39.6072L792.332 39.6058L791.793 38.7635ZM782.533 42.4091L782.34 41.4279L781.683 41.557L781.552 42.213L782.533 42.4091ZM782.365 43.2472L781.384 43.051L781.153 44.2109L782.335 44.2467L782.365 43.2472ZM792.003 46.0128L791.468 46.8579L791.474 46.8618L792.003 46.0128ZM798.037 53.1364L797.116 53.5252L797.117 53.5282L798.037 53.1364ZM798.959 63.696L797.972 63.5316V63.5316L798.959 63.696ZM793.218 76.2251L792.449 75.5855L793.218 76.2251ZM781.359 84.8572L780.964 83.9389L781.359 84.8572ZM750.854 69.3949L749.866 69.2394L749.684 70.3949H750.854V69.3949ZM770.842 67.174L770.289 66.3403L770.284 66.3436L770.842 67.174ZM774.822 60.679L773.836 60.5146L773.834 60.524L773.833 60.5335L774.822 60.679ZM774.32 55.5668L775.221 55.134L774.32 55.5668ZM770.925 52.3821L770.51 53.2919L770.925 52.3821ZM753.703 51.2926V50.2926H752.848L752.715 51.1371L753.703 51.2926ZM756.217 36.8778L755.23 36.7167L755.041 37.8778H756.217V36.8778ZM771.303 35.9141L771.661 36.8478L771.303 35.9141ZM777.504 28.6648L778.492 28.824L778.492 28.8191L777.504 28.6648ZM775.577 22.5469L774.937 23.3151L774.943 23.3203L775.577 22.5469ZM758.899 20.4517V19.4517H758.049L757.912 20.2906L758.899 20.4517ZM724.371 88L725.357 88.1638L739.604 2.34559L738.618 2.18182L737.631 2.01804L723.384 87.8362L724.371 88ZM738.618 2.18182V3.18182H775.828V2.18182V1.18182H738.618V2.18182ZM775.828 2.18182V3.18182C782.286 3.18182 787.491 4.05274 791.488 5.74279L791.877 4.82173L792.267 3.90068C787.939 2.07083 782.444 1.18182 775.828 1.18182V2.18182ZM791.877 4.82173L791.49 5.74372C795.523 7.43745 798.281 9.78891 799.88 12.7551L800.761 12.2805L801.641 11.806C799.776 8.34697 796.612 5.7259 792.264 3.89975L791.877 4.82173ZM800.761 12.2805L799.884 12.761C801.515 15.7389 802.022 19.2881 801.325 23.472L802.311 23.6364L803.297 23.8008C804.053 19.2687 803.526 15.2474 801.638 11.8001L800.761 12.2805ZM802.311 23.6364L801.327 23.4606C800.794 26.4439 799.651 29.1697 797.892 31.6478L798.707 32.2266L799.523 32.8053C801.452 30.0874 802.711 27.0864 803.296 23.8122L802.311 23.6364ZM798.707 32.2266L797.891 31.6495C796.153 34.1085 793.945 36.1992 791.254 37.9212L791.793 38.7635L792.332 39.6058C795.229 37.7521 797.63 35.4848 799.524 32.8036L798.707 32.2266ZM791.793 38.7635L791.256 37.9198C788.602 39.609 785.633 40.78 782.34 41.4279L782.533 42.4091L782.726 43.3903C786.249 42.6972 789.453 41.4379 792.33 39.6072L791.793 38.7635ZM782.533 42.4091L781.552 42.213L781.384 43.051L782.365 43.2472L783.346 43.4433L783.513 42.6052L782.533 42.4091ZM782.365 43.2472L782.335 44.2467C785.869 44.3538 788.902 45.2342 791.468 46.8579L792.003 46.0128L792.537 45.1677C789.628 43.3273 786.236 42.364 782.395 42.2476L782.365 43.2472ZM792.003 46.0128L791.474 46.8618C794.032 48.4538 795.909 50.6654 797.116 53.5252L798.037 53.1364L798.958 52.7475C797.595 49.5174 795.449 46.9799 792.531 45.1638L792.003 46.0128ZM798.037 53.1364L797.117 53.5282C798.311 56.3317 798.619 59.6511 797.972 63.5316L798.959 63.696L799.945 63.8604C800.639 59.6955 800.333 55.9751 798.957 52.7445L798.037 53.1364ZM798.959 63.696L797.972 63.5316C797.219 68.0498 795.381 72.0622 792.449 75.5855L793.218 76.2251L793.987 76.8647C797.145 73.069 799.134 68.7286 799.945 63.8604L798.959 63.696ZM793.218 76.2251L792.449 75.5855C789.516 79.1112 785.696 81.899 780.964 83.9389L781.359 84.8572L781.755 85.7756C786.744 83.6252 790.83 80.6583 793.987 76.8647L793.218 76.2251ZM781.359 84.8572L780.964 83.9389C776.247 85.9718 770.854 87 764.766 87V88V89C771.08 89 776.75 87.9331 781.755 85.7756L781.359 84.8572ZM764.766 88V87H724.371V88V89H764.766V88ZM750.854 69.3949V70.3949H761.749V69.3949V68.3949H750.854V69.3949ZM761.749 69.3949V70.3949C765.717 70.3949 768.968 69.635 771.399 68.0044L770.842 67.174L770.284 66.3436C768.301 67.6742 765.49 68.3949 761.749 68.3949V69.3949ZM770.842 67.174L771.394 68.0077C773.885 66.3575 775.355 63.9314 775.812 60.8245L774.822 60.679L773.833 60.5335C773.452 63.1254 772.268 65.0293 770.289 66.3404L770.842 67.174ZM774.822 60.679L775.809 60.8434C776.167 58.6925 776.005 56.767 775.221 55.134L774.32 55.5668L773.418 55.9995C773.975 57.16 774.148 58.6427 773.836 60.5146L774.822 60.679ZM774.32 55.5668L775.221 55.134C774.436 53.4988 773.116 52.2824 771.34 51.4723L770.925 52.3821L770.51 53.2919C771.919 53.9344 772.862 54.8411 773.418 55.9995L774.32 55.5668ZM770.925 52.3821L771.34 51.4723C769.579 50.6687 767.429 50.2926 764.933 50.2926V51.2926V52.2926C767.243 52.2926 769.087 52.6428 770.51 53.2919L770.925 52.3821ZM764.933 51.2926V50.2926H753.703V51.2926V52.2926H764.933V51.2926ZM753.703 51.2926L752.715 51.1371L749.866 69.2394L750.854 69.3949L751.842 69.5504L754.691 51.4481L753.703 51.2926ZM756.217 36.8778V37.8778H765.771V36.8778V35.8778H756.217V36.8778ZM765.771 36.8778V37.8778C767.89 37.8778 769.857 37.5391 771.661 36.8478L771.303 35.9141L770.945 34.9803C769.396 35.5741 767.675 35.8778 765.771 35.8778V36.8778ZM771.303 35.9141L771.661 36.8478C773.472 36.1532 774.994 35.1301 776.199 33.7698L775.451 33.1065L774.703 32.4432C773.729 33.5413 772.485 34.3898 770.945 34.9803L771.303 35.9141ZM775.451 33.1065L776.199 33.7698C777.423 32.3889 778.184 30.73 778.492 28.824L777.504 28.6648L776.517 28.5055C776.266 30.0636 775.658 31.3658 774.703 32.4432L775.451 33.1065ZM777.504 28.6648L778.492 28.8191C778.951 25.8819 778.256 23.4497 776.211 21.7735L775.577 22.5469L774.943 23.3203C776.306 24.4376 776.895 26.084 776.516 28.5104L777.504 28.6648ZM775.577 22.5469L776.217 21.7787C774.312 20.1914 771.799 19.4517 768.788 19.4517V20.4517V21.4517C771.476 21.4517 773.489 22.1087 774.937 23.3151L775.577 22.5469ZM768.788 20.4517V19.4517H758.899V20.4517V21.4517H768.788V20.4517ZM758.899 20.4517L757.912 20.2906L755.23 36.7167L756.217 36.8778L757.204 37.039L759.886 20.6128L758.899 20.4517ZM825.484 88V89H826.119L826.389 88.4246L825.484 88ZM800.342 88L799.446 87.5556L798.729 89H800.342V88ZM842.915 2.18182V1.18182H842.295L842.02 1.7374L842.915 2.18182ZM874.762 2.18182L875.749 2.01992L875.611 1.18182H874.762V2.18182ZM888.842 88V89H890.019L889.828 87.8381L888.842 88ZM863.7 88L862.709 88.1336L862.825 89H863.7V88ZM855.319 25.8153L856.31 25.6818L856.193 24.8153H855.319V25.8153ZM854.648 25.8153V24.8153H854.013L853.743 25.3907L854.648 25.8153ZM826.489 54.142V53.142H825.648L825.504 53.9715L826.489 54.142ZM873.756 54.142L874.742 54.3126L874.944 53.142H873.756V54.142ZM870.739 71.5739V72.5739H871.581L871.725 71.7444L870.739 71.5739ZM823.472 71.5739L822.487 71.4033L822.284 72.5739H823.472V71.5739ZM825.484 88V87H800.342V88V89H825.484V88ZM800.342 88L801.237 88.4444L843.811 2.62623L842.915 2.18182L842.02 1.7374L799.446 87.5556L800.342 88ZM842.915 2.18182V3.18182H874.762V2.18182V1.18182H842.915V2.18182ZM874.762 2.18182L873.775 2.34371L887.855 88.1619L888.842 88L889.828 87.8381L875.749 2.01992L874.762 2.18182ZM888.842 88V87H863.7V88V89H888.842V88ZM863.7 88L864.691 87.8664L856.31 25.6818L855.319 25.8153L854.328 25.9489L862.709 88.1336L863.7 88ZM855.319 25.8153V24.8153H854.648V25.8153V26.8153H855.319V25.8153ZM854.648 25.8153L853.743 25.3907L824.578 87.5754L825.484 88L826.389 88.4246L855.554 26.24L854.648 25.8153ZM826.489 54.142V55.142H873.756V54.142V53.142H826.489V54.142ZM873.756 54.142L872.771 53.9715L869.754 71.4033L870.739 71.5739L871.725 71.7444L874.742 54.3126L873.756 54.142ZM870.739 71.5739V70.5739H823.472V71.5739V72.5739H870.739V71.5739ZM823.472 71.5739L824.458 71.7444L827.475 54.3126L826.489 54.142L825.504 53.9715L822.487 71.4033L823.472 71.5739ZM897.442 88L896.456 87.8335L896.259 89H897.442V88ZM899.621 75.0938L898.884 74.4181L898.684 74.6359L898.635 74.9273L899.621 75.0938ZM949.235 20.9545L949.972 21.6302L951.508 19.9545H949.235V20.9545ZM908.672 20.9545L907.687 20.7873L907.488 21.9545H908.672V20.9545ZM911.857 2.18182V1.18182H911.012L910.871 2.01456L911.857 2.18182ZM981.92 2.18182L982.906 2.34829L983.103 1.18182H981.92V2.18182ZM979.741 15.0881L980.478 15.7637L980.677 15.5459L980.727 15.2545L979.741 15.0881ZM930.127 69.2273L929.39 68.5517L927.854 70.2273H930.127V69.2273ZM970.689 69.2273L971.675 69.3945L971.873 68.2273H970.689V69.2273ZM967.505 88V89H968.349L968.491 88.1673L967.505 88ZM897.442 88L898.428 88.1665L900.607 75.2602L899.621 75.0938L898.635 74.9273L896.456 87.8335L897.442 88ZM899.621 75.0938L900.359 75.7694L949.972 21.6302L949.235 20.9545L948.498 20.2789L898.884 74.4181L899.621 75.0938ZM949.235 20.9545V19.9545H908.672V20.9545V21.9545H949.235V20.9545ZM908.672 20.9545L909.658 21.1218L912.843 2.34907L911.857 2.18182L910.871 2.01456L907.687 20.7873L908.672 20.9545ZM911.857 2.18182V3.18182H981.92V2.18182V1.18182H911.857V2.18182ZM981.92 2.18182L980.934 2.01534L978.755 14.9216L979.741 15.0881L980.727 15.2545L982.906 2.34829L981.92 2.18182ZM979.741 15.0881L979.003 14.4124L929.39 68.5517L930.127 69.2273L930.864 69.9029L980.478 15.7637L979.741 15.0881ZM930.127 69.2273V70.2273H970.689V69.2273V68.2273H930.127V69.2273ZM970.689 69.2273L969.704 69.06L966.519 87.8327L967.505 88L968.491 88.1673L971.675 69.3945L970.689 69.2273ZM967.505 88V87H897.442V88V89H967.505V88ZM1001.33 88V89H1001.97L1002.24 88.4246L1001.33 88ZM976.189 88L975.293 87.5556L974.577 89H976.189V88ZM1018.76 2.18182V1.18182H1018.14L1017.87 1.7374L1018.76 2.18182ZM1050.61 2.18182L1051.6 2.01992L1051.46 1.18182H1050.61V2.18182ZM1064.69 88V89H1065.87L1065.68 87.8381L1064.69 88ZM1039.55 88L1038.56 88.1336L1038.67 89H1039.55V88ZM1031.17 25.8153L1032.16 25.6818L1032.04 24.8153H1031.17V25.8153ZM1030.5 25.8153V24.8153H1029.86L1029.59 25.3907L1030.5 25.8153ZM1002.34 54.142V53.142H1001.5L1001.35 53.9715L1002.34 54.142ZM1049.6 54.142L1050.59 54.3126L1050.79 53.142H1049.6V54.142ZM1046.59 71.5739V72.5739H1047.43L1047.57 71.7444L1046.59 71.5739ZM999.32 71.5739L998.335 71.4033L998.132 72.5739H999.32V71.5739ZM1001.33 88V87H976.189V88V89H1001.33V88ZM976.189 88L977.085 88.4444L1019.66 2.62623L1018.76 2.18182L1017.87 1.7374L975.293 87.5556L976.189 88ZM1018.76 2.18182V3.18182H1050.61V2.18182V1.18182H1018.76V2.18182ZM1050.61 2.18182L1049.62 2.34371L1063.7 88.1619L1064.69 88L1065.68 87.8381L1051.6 2.01992L1050.61 2.18182ZM1064.69 88V87H1039.55V88V89H1064.69V88ZM1039.55 88L1040.54 87.8664L1032.16 25.6818L1031.17 25.8153L1030.18 25.9489L1038.56 88.1336L1039.55 88ZM1031.17 25.8153V24.8153H1030.5V25.8153V26.8153H1031.17V25.8153ZM1030.5 25.8153L1029.59 25.3907L1000.43 87.5754L1001.33 88L1002.24 88.4246L1031.4 26.24L1030.5 25.8153ZM1002.34 54.142V55.142H1049.6V54.142V53.142H1002.34V54.142ZM1049.6 54.142L1048.62 53.9715L1045.6 71.4033L1046.59 71.5739L1047.57 71.7444L1050.59 54.3126L1049.6 54.142ZM1046.59 71.5739V70.5739H999.32V71.5739V72.5739H1046.59V71.5739ZM999.32 71.5739L1000.31 71.7444L1003.32 54.3126L1002.34 54.142L1001.35 53.9715L998.335 71.4033L999.32 71.5739ZM1072.95 88L1071.97 87.8362L1071.78 89H1072.95V88ZM1087.2 2.18182V1.18182H1086.35L1086.22 2.01804L1087.2 2.18182ZM1149.85 15.6747L1150.76 15.2702L1149.85 15.6747ZM1151.23 31.3466L1150.24 31.1837L1150.24 31.1851L1151.23 31.3466ZM1144.57 46.8928L1143.79 46.2612L1143.79 46.2618L1144.57 46.8928ZM1131.54 56.4467L1131.91 57.3721L1131.92 57.3711L1131.54 56.4467ZM1091.73 59.6733L1090.74 59.5089L1090.55 60.6733H1091.73V59.6733ZM1094.74 41.571V40.571H1093.9L1093.76 41.4066L1094.74 41.571ZM1119.38 40.5653L1119.69 41.5166L1119.7 41.5127L1119.38 40.5653ZM1124.41 37.2969L1125.17 37.9524L1125.17 37.9453L1124.41 37.2969ZM1126.93 31.3466L1125.94 31.1895L1126.93 31.3466ZM1126.34 25.3544L1125.45 25.8016L1125.45 25.8081L1126.34 25.3544ZM1122.44 21.9183L1122.06 22.8419L1122.07 22.8468L1122.44 21.9183ZM1107.48 20.7869V19.7869H1106.64L1106.5 20.6221L1107.48 20.7869ZM1096.25 88V89H1097.1L1097.24 88.1648L1096.25 88ZM1129.78 48.6108L1130.71 48.2566L1130.47 47.6108H1129.78V48.6108ZM1144.69 88V89H1146.14L1145.63 87.6458L1144.69 88ZM1119.38 88L1118.44 88.3437L1118.68 89H1119.38V88ZM1104.97 48.6108V47.6108H1103.54L1104.03 48.9545L1104.97 48.6108ZM1072.95 88L1073.94 88.1638L1088.19 2.34559L1087.2 2.18182L1086.22 2.01804L1071.97 87.8362L1072.95 88ZM1087.2 2.18182V3.18182H1124.24V2.18182V1.18182H1087.2V2.18182ZM1124.24 2.18182V3.18182C1130.5 3.18182 1135.7 4.3199 1139.91 6.54386L1140.38 5.6598L1140.84 4.77574C1136.28 2.36239 1130.73 1.18182 1124.24 1.18182V2.18182ZM1140.38 5.6598L1139.91 6.54386C1144.11 8.76212 1147.1 11.9358 1148.93 16.0792L1149.85 15.6747L1150.76 15.2702C1148.74 10.6978 1145.42 7.19479 1140.84 4.77574L1140.38 5.6598ZM1149.85 15.6747L1148.93 16.0792C1150.76 20.2134 1151.23 25.2298 1150.24 31.1837L1151.23 31.3466L1152.22 31.5095C1153.25 25.2835 1152.79 19.8519 1150.76 15.2702L1149.85 15.6747ZM1151.23 31.3466L1150.24 31.1851C1149.26 37.1838 1147.1 42.197 1143.79 46.2612L1144.57 46.8928L1145.34 47.5243C1148.9 43.1519 1151.19 37.8011 1152.22 31.5081L1151.23 31.3466ZM1144.57 46.8928L1143.79 46.2618C1140.49 50.3156 1136.29 53.4031 1131.15 55.5224L1131.54 56.4467L1131.92 57.3711C1137.34 55.1324 1141.82 51.8506 1145.34 47.5237L1144.57 46.8928ZM1131.54 56.4467L1131.16 55.5213C1126.04 57.6162 1120.28 58.6733 1113.85 58.6733V59.6733V60.6733C1120.5 60.6733 1126.53 59.5793 1131.91 57.3721L1131.54 56.4467ZM1113.85 59.6733V58.6733H1091.73V59.6733V60.6733H1113.85V59.6733ZM1091.73 59.6733L1092.71 59.8377L1095.73 41.7354L1094.74 41.571L1093.76 41.4066L1090.74 59.5089L1091.73 59.6733ZM1094.74 41.571V42.571H1112.18V41.571V40.571H1094.74V41.571ZM1112.18 41.571V42.571C1114.99 42.571 1117.5 42.2265 1119.69 41.5166L1119.38 40.5653L1119.08 39.6141C1117.13 40.2451 1114.84 40.571 1112.18 40.571V41.571ZM1119.38 40.5653L1119.7 41.5127C1121.92 40.764 1123.75 39.5819 1125.17 37.9523L1124.41 37.2969L1123.66 36.6414C1122.5 37.973 1120.98 38.9699 1119.06 39.6179L1119.38 40.5653ZM1124.41 37.2969L1125.17 37.9453C1126.6 36.2652 1127.5 34.0974 1127.91 31.5037L1126.93 31.3466L1125.94 31.1895C1125.57 33.5124 1124.79 35.3115 1123.65 36.6484L1124.41 37.2969ZM1126.93 31.3466L1127.91 31.5037C1128.32 28.9257 1128.14 26.6924 1127.23 24.9007L1126.34 25.3544L1125.45 25.8081C1126.1 27.0893 1126.31 28.8508 1125.94 31.1895L1126.93 31.3466ZM1126.34 25.3544L1127.23 24.9072C1126.33 23.0974 1124.83 21.7956 1122.81 20.9898L1122.44 21.9183L1122.07 22.8468C1123.69 23.4937 1124.79 24.4826 1125.45 25.8016L1126.34 25.3544ZM1122.44 21.9183L1122.83 20.9948C1120.85 20.1753 1118.46 19.7869 1115.7 19.7869V20.7869V21.7869C1118.29 21.7869 1120.4 22.1528 1122.06 22.8418L1122.44 21.9183ZM1115.7 20.7869V19.7869H1107.48V20.7869V21.7869H1115.7V20.7869ZM1107.48 20.7869L1106.5 20.6221L1095.27 87.8352L1096.25 88L1097.24 88.1648L1108.47 20.9517L1107.48 20.7869ZM1096.25 88V87H1072.95V88V89H1096.25V88ZM1129.78 48.6108L1128.84 48.965L1143.76 88.3542L1144.69 88L1145.63 87.6458L1130.71 48.2566L1129.78 48.6108ZM1144.69 88V87H1119.38V88V89H1144.69V88ZM1119.38 88L1120.32 87.6563L1105.91 48.2671L1104.97 48.6108L1104.03 48.9545L1118.44 88.3437L1119.38 88ZM1104.97 48.6108V49.6108H1129.78V48.6108V47.6108H1104.97V48.6108Z" fill="#FD7D68" mask="url(#path-1-outside-1_76_516)"/>
</svg>
